<?xml version="1.0" encoding="utf-8"?>
<!-- Generator: Adobe Illustrator 22.0.1, SVG Export Plug-In . SVG Version: 6.00 Build 0)  -->
<svg version="1.1" id="Layer_1" xmlns="http://www.w3.org/2000/svg" xmlns:xlink="http://www.w3.org/1999/xlink" x="0px" y="0px"
	 viewBox="0 0 900 130" xml:space="preserve" preserveAspectRatio="xMinYmin">
<style type="text/css">
	.st0{fill:#B0B7BB;}
	.st1{fill:#B4121B;}
	.st2{fill:#FFFFFF;}
	.st3{fill:#231F20;}
	.st4{fill:#6A747C;}
</style>
<g>
	<g>
		<path class="st0" d="M900,50v8.7c0,16.1-7.9,51.7-46.7,70.7c-38.8-19-46.7-54.6-46.7-70.7V50H900z"/>
	</g>
	<path class="st1" d="M853.3,11.1c0,0,30.5-0.4,46.7,6V50h-93.4V17.1C822.8,10.7,853.3,11.1,853.3,11.1"/>
	<path class="st2" d="M830.3,21.3c0.4,0.3,0.9,0.6,1.3,0.7c0.5,0.1,0.9,0.2,1.4,0.2c0.9,0,1.7-0.2,2.6-0.3c0.8-0.1,1.6-0.3,2.5-0.3
		c0.8,0,1.7,0.2,2.3,0.7c-0.6-0.6-1.5-0.9-2.3-1c-0.9-0.1-1.7-0.1-2.6,0c-0.8,0-1.7,0.1-2.5,0c-0.8-0.1-1.5-0.4-1.9-0.9l-0.1-0.1
		c-0.3-0.2-0.7-0.2-0.9,0.1C830,20.6,830,21,830.3,21.3L830.3,21.3z M851.5,45.9c-0.3,0.4-0.4,0.9-0.4,1.2c0,0,0,0,0,0
		c0,0,0-0.1,0.1-0.1c0.1-0.2,0.2-0.4,0.4-0.5C851.6,46.3,851.6,46.2,851.5,45.9C851.5,46,851.5,46,851.5,45.9 M852.3,44.4
		c-0.2-0.3-0.4-0.7-0.4-1.2c0-0.1,0-0.2,0-0.2v0c-0.2,0-0.4,0-0.6,0c0,0-0.1,0-0.1,0h-0.1c-0.1,0-0.1,0-0.1,0c-0.1,0-0.1,0-0.2,0.1
		c-0.1,0.1-0.1,0.2-0.2,0.5c0,0.1-0.1,0.4-0.1,0.5c0,0.1,0,0.2,0.1,0.2c0,0.1,0.1,0.1,0.2,0.2c0.4,0.2,0.8,0.2,1,0.2h0
		c0.1,0,0.2,0,0.3-0.1C852.2,44.6,852.2,44.5,852.3,44.4 M852.4,45.1c-0.1,0.1-0.2,0.1-0.2,0.2c0,0-0.1,0.1-0.1,0.1
		c0,0.1-0.1,0.1-0.1,0.1c0,0.1,0,0.1,0,0.2c0,0.1,0,0.3,0.1,0.4c0.1,0.1,0.3,0.3,0.6,0.4c0.2,0.1,0.4,0.1,0.6,0.1
		c0.3,0,0.5-0.1,0.6-0.3c0.1-0.2,0.2-0.3,0.2-0.5c-0.5-0.2-1-0.6-1.4-1C852.6,44.9,852.5,45,852.4,45.1 M849.3,43.7
		c-0.1,0.2-0.2,0.3-0.3,0.5c0,0,0.1-0.1,0.1-0.1c0.3-0.3,0.6-0.4,0.9-0.4c0-0.1,0-0.2,0.1-0.3l0,0v0c0-0.1,0.1-0.2,0.1-0.2
		C849.8,43.2,849.5,43.4,849.3,43.7 M868.7,39.9c-0.3-0.1-0.6-0.1-1-0.3c-0.6-0.4-1.1-1.1-1.1-1.7c0-0.6,0.4-1.4,0.9-2
		c0.4-0.4,0.8-0.8,1.2-1c0,0-1.5-1.5-1.6-1.6c-0.5-0.4-1-0.8-1.6-1c-0.7-0.2-1.3,0-1.9,0.3c-0.4,0.2-0.8,0.4-1.1,0.6
		c-1.5,0.9-2.2,2.6-2.4,3.2c0.1-0.1,0.1-0.1,0.2-0.2c0.2-0.2,0.5-0.4,0.7-0.4c0.1,0,0.1,0,0.2,0c0.1,0,0.2,0.1,0.3,0.1
		c0,0.1,0.1,0.2,0.1,0.2c0,0.1,0,0.2,0,0.2c0,0,0,0.1-0.1,0.2c0,0.1-0.1,0.3-0.1,0.5c-0.1,0.4-0.2,0.8-0.2,1.3
		c0.3-0.4,0.6-0.7,0.6-0.8c0,0,0,0,0.1-0.1c0,0,0.1-0.1,0.2-0.1c0,0,0.1,0,0.1,0.1c0,0,0.1,0.1,0.1,0.1c0,0,0,0.1,0,0.2
		c0,0.6-0.1,1.1,0.2,1.6c0.3,0.5,0.4,0.8,0.2,1.3c-0.2,0.4-0.6,0.8-1,1c-0.2,0.2-0.5,0.3-0.8,0.3c-0.3,0-0.8,0-1.2,0.1
		c-0.5,0.2-1,0.6-1.5,0.7c-0.2,0-0.3,0.1-0.5,0.1c-0.6,0-1.4-0.2-1.9-0.7c-0.2-0.3-0.3-0.5-0.3-0.8c0-0.7,0.6-1.3,0.6-1.3l0,0
		c0,0,0-0.1,0-0.1l0,0c0,0-0.1,0-0.1,0c-0.1,0-0.1,0-0.2,0c-0.5,0-1.4,0-1.4,0c0,0-0.4,0-0.6,0.2l0,0c0,0-0.1,0.1-0.1,0.1
		c-0.1,0.1-0.2,0.2-0.2,0.4c-0.1,0.2,0,0.6-0.1,1c-0.1,0.4-0.3,0.9-0.3,1.2c0,0.1,0,0.1,0,0.2c0,0.5,0.2,0.8,0.4,1
		c0.6,0.8,1.6,1.2,2.5,1.5c1,0.3,1.9,0.4,2.2,0.4c0.1,0,0.1,0,0.1,0c0.1,0,1.6-0.4,2.2-0.5c0.5-0.1,1.8-0.2,2.3-0.3
		c0,0-0.8-0.4-0.8-0.4c0,0-0.1,0-0.1-0.1c0,0-0.1-0.1-0.1-0.2c0,0,0-0.1,0-0.1c0-0.1,0.1-0.1,0.2-0.2c0.1,0,0.1,0,0.2,0
		c0.1,0,0.1,0,0.2,0c0,0,0.2,0,0.5,0c0.3,0,0.7,0,1.2,0c0.3,0,0.6,0,0.9,0c0.7-0.1,1-0.4,1.2-0.5c0,0-0.1,0-0.1,0
		c-0.1,0-0.3-0.1-0.4-0.1c-0.1,0-0.3-0.1-0.4-0.2c0,0-0.1-0.1-0.1-0.1c0-0.1-0.1-0.1-0.1-0.2c0,0,0,0,0,0c0-0.1,0-0.1,0.1-0.1
		c0,0,0.1-0.1,0.1-0.1c0.1,0,0.2-0.1,0.2-0.1c0,0,0.3,0,0.6-0.1c0.3-0.1,0.7-0.1,1.1-0.3c0.4-0.2,1-0.5,1.2-0.7
		c-0.1,0-0.2-0.1-0.3-0.1c-0.2-0.1-0.5-0.2-0.7-0.4c0,0,0,0-0.1-0.1c0-0.1-0.1-0.1-0.1-0.2l0-0.1c0-0.1,0.1-0.1,0.1-0.1
		c0,0,0.1,0,0.1-0.1c0.1,0,0.2,0,0.2,0c0,0,0.1,0,0.2,0c0.1,0,0.3-0.1,0.5-0.1c0.4-0.1,0.8-0.2,1.1-0.4c0.2-0.1,0.3-0.2,0.3-0.3
		c0,0,0,0,0,0C868.9,39.9,868.8,39.9,868.7,39.9 M888.1,43.1c-0.1-0.1-0.1-0.3-0.1-0.4c0-0.4,0.2-0.6,0.4-0.9c0,0,0-0.1,0.1-0.1
		c0.2-0.3,0.3-0.6,0.3-1c0-0.5-0.2-1.1-0.8-1.7c0,0-0.1-0.1-0.1-0.5c0-0.2,0.1-0.6,0.3-1.1c0.2-0.5,0.4-0.9,0.4-1.3
		c0-0.2,0-0.4-0.2-0.6c-0.1,0.3-0.2,1.1-0.7,1.1c-0.4,0-0.3-0.5-0.3-0.7c0-0.1,0-0.1,0-0.2c0-0.2,0-0.5,0-0.8c0-0.5-0.1-1-0.2-1.4
		c-0.1,0.3-0.2,0.5-0.3,0.7c-0.1,0.1-0.1,0.1-0.2,0.1c-0.1,0-0.2-0.1-0.2-0.1c-0.1-0.1-0.1-0.2-0.1-0.2c-0.1-0.2-0.1-0.3-0.1-0.3
		c0,0-0.1-0.4-0.2-0.8c-0.1-0.4-0.2-0.9-0.3-1.1c0,0.2-0.1,0.3-0.1,0.5c-0.1,0.2-0.1,0.6-0.4,0.6c-0.2,0-0.3-0.2-0.3-0.3
		c0-0.2-0.1-0.4-0.1-0.6c-0.1-0.3-0.2-0.7-0.3-1c-0.1-0.2-0.1-0.3-0.2-0.3c0,0,0,0.1-0.1,0.1c-0.1,0.1-0.1,0.3-0.3,0.5
		c-0.2,0.4-0.6,0.8-1,1.1c-0.8,0.6-1.5,0.7-2,0.7c-0.8,0-2.2-0.3-3.4-1.1c-0.7-0.4-1.9-1.1-2.6-1.7l-0.2-0.2l0.3,0
		c0.3,0,0.5,0,0.8,0c1.2,0,2.4-0.1,3.3-0.5c1-0.5,1.6-1.2,2-1.8c0.5-0.7,0.9-1.3,1.8-1.8c0.6-0.3,1.1-0.4,1.7-0.4
		c0.6,0,1.2,0.1,1.4,0.2c-0.2-0.8-1.2-1.5-2.4-1.5c-0.8,0-1.8,0.4-2.7,1.3l-0.1,0.1l0-0.2l0,0c0,0,0-0.1,0-0.1c0-0.1,0-0.2-0.1-0.4
		c-0.1-0.3-0.2-0.7-0.5-1.1c-0.6-0.8-1.7-1.6-4.1-1.6c-0.2,0-0.4,0-0.6,0c-1.9,0.1-5.5,1.2-8.7,1.9c-3.2,0.6-7.9,0.9-9.9,0.9
		c-0.8,0-1.5-0.1-2.2-0.2c-0.7-0.2-1.2-0.4-1.5-0.8c-0.2-0.3-0.4-0.6-0.4-0.9c0-0.7,0.4-1.2,0.9-1.4c0.5-0.2,1.1-0.3,1.6-0.3
		c1.6,0,3.7,1,5.4,1.6c1.2,0.4,2.4,0.5,3.1,0.5c1.8,0,4-1,5.2-1.4c0.9-0.4,1.7-0.6,3-0.6c0.3,0,0.7,0,1,0c-0.5-0.5-1.5-1.1-2.9-1.1
		c-0.9,0-1.9,0.2-3,0.8l-0.1,0l0-0.1c-0.1-0.1-0.1-0.2-0.1-0.3c0-0.3,0.1-0.6,0.4-0.9c0.2-0.3,0.6-0.5,1-0.7
		c-0.3-0.1-0.7-0.3-1.3-0.4c-0.7-0.2-1.5-0.3-2.4-0.3c-0.1,0-0.2,0-0.3,0c-1.5,0-2.5,0.4-3.5,0.8c-1,0.4-2,0.7-3.4,0.7
		c-0.1,0-0.3,0-0.4,0c-0.3,0-0.6,0-0.8,0c-1.4,0-2.6,0.2-3.5,0.6c-0.9,0.4-1.4,1.1-1.4,2.2c0,0.9,0.5,1.7,1.5,2.3
		c1,0.6,2.4,0.9,4.2,0.9c0,0,0.1,0,0.1,0c4.5,0,9.8-1.1,13.1-1.6c1.1-0.2,3.4-0.8,5.3-0.8c0.9,0,1.7,0.1,2.3,0.5c0.6,0.4,1,1,1,1.9
		c0,0.5-0.1,1-0.5,1.5c-0.4,0.5-1.1,0.8-2.2,0.8c-1.3,0-2.8-0.4-4.6-0.6l-0.1,0c-0.4-0.1-0.8-0.1-1.2-0.2c-2.6-0.3-6.1-0.6-8-0.6
		c-0.2,0-0.4,0-0.5,0c-1.5,0-4.3,0.2-6.9,0.6c-2.8,0.4-5.3,1-6.1,1.2v0.1l0,2.5l-0.7-1.1c0,0,0,0.1,0,0.1c0,1.1-0.2,2-0.4,2.5
		c-0.1,0.3-0.2,0.6-0.3,0.7c0,0.1,0,0.1-0.1,0.1l-0.6,1.1l-0.5-0.9c-0.2,1.1-0.6,2.1-1.4,2.9c-0.2,0.2-0.5,0.5-0.9,0.8
		c0,0-0.1,0.1-0.1,0.1c-0.1,0.1-0.2,0.2-0.3,0.2l-1.1,0.6v-1.9c-0.2,0.3-0.4,0.5-0.7,0.7c-0.5,0.4-0.9,0.6-1.4,0.6
		c-0.2,0-0.3,0-0.5-0.1l-0.9-0.3l0.5-0.8c0-0.1,0.1-0.2,0.2-0.4c0.2-0.4,0.2-0.6,0.2-0.7c0,0,0-0.1,0-0.1c-0.1-0.1-0.2-0.1-0.5-0.1
		c-0.1,0-0.2,0-0.4,0c-0.6,0.1-1.6,0.4-3.6,1.4c-1,0.5-2,1.1-3,1.7c-0.6,0.4-1.3,0.8-1.9,1.1c-0.9,0.5-1.9,0.9-3,1.1
		c-0.3,0.1-0.6,0.1-0.9,0.1c-0.5,0-0.9-0.1-1.1-0.4c-0.5,0-0.9-0.2-1.2-0.3c-0.4-0.2-0.8-0.5-1.1-0.7c-0.2-0.2-0.4-0.4-0.5-0.6
		c-0.5,0.5-1,1.1-1,1.8c0,0.2,0,0.4,0,0.6c0,0.1,0,0.2,0,0.3c0.1,0,0.2,0,0.3,0c2.1,0,3.2-0.3,3.3-0.3l0.1,0c0.1,0,0.2,0.1,0.3,0.2
		l0,0.1c0,0.1-0.1,0.2-0.2,0.3c0,0-1.2,0.4-3.4,0.4c-0.1,0-0.2,0-0.2,0c0.1,0.6,0.2,1.1,0.5,1.5c0.3,0.5,0.8,0.6,1,0.6
		c0,0,0.1,0,0.1,0c1.7-1.2,2.8-1.5,2.8-1.6c0,0,0.1,0,0.1,0c0.1,0,0.2,0.1,0.3,0.2c0,0,0,0.1,0,0.1c0,0.1-0.1,0.2-0.2,0.3l-0.1,0
		c0,0-0.1,0-0.2,0.1c-0.2,0.1-0.4,0.2-0.8,0.4c-0.2,0.1-0.5,0.3-0.7,0.4c0,0,0,0,0,0.1c0,0,0,0.1,0.1,0.2c0.2,0.4,0.5,0.8,0.7,1.1
		c0.1,0.2,0.4,0.4,0.7,0.4c0.3,0,0.6-0.2,1.1-0.8c0.3-0.3,0.6-0.6,1.2-0.6l1.5-0.1l0,0c0,0,0,0,0.1,0c0.1,0,0.2,0,0.3-0.1
		c0.2-0.1,0.4-0.2,0.6-0.4c0.1-0.2,0.2-0.3,0.3-0.3c0.1-0.1,0.3-0.1,0.4-0.1c0.3,0,0.6,0.1,1,0.2c0.6,0.2,1.2,0.3,1.5,0.3
		c0.1,0,0.2,0,0.3,0c0,0-0.1-0.1-0.2-0.2c-0.1-0.1-0.3-0.3-0.4-0.5c-0.1-0.1-0.1-0.2-0.1-0.3c0-0.1,0-0.1,0.1-0.2
		c0.1-0.1,0.2-0.1,0.3-0.1c0.1,0,0.2,0,0.3,0.1c0.1,0,0.1,0.1,0.1,0.1c0.6,0.5,1.8,0.8,2.8,0.8c0.3,0,0.5,0,0.7-0.1
		c-0.2-0.1-0.4-0.2-0.6-0.4c-0.1-0.1-0.2-0.2-0.2-0.3c0-0.1,0-0.1,0.1-0.2c0.1-0.1,0.2-0.1,0.3-0.1c0.3,0,0.7,0.1,0.7,0.1
		c0,0,0.1,0,0.2,0c0.1,0,0.3,0.1,0.4,0.1c0.4,0.1,0.8,0.1,1.3,0.1c0.5,0,1-0.1,1.2-0.3c-0.5-0.4-0.8-0.8-0.8-0.8
		c0,0-0.1-0.1-0.1-0.3c0-0.1,0-0.1,0.1-0.2c0.1-0.1,0.2-0.1,0.2-0.1c0.2,0,0.4,0.1,0.4,0.1c0,0,0.1,0,0.2,0.1c0.1,0,0.3,0.1,0.5,0.2
		c0.4,0.1,1,0.2,1.6,0.2c0.5,0,0.9-0.1,1.2-0.3c-0.4-0.2-0.6-0.4-0.6-0.4c0,0-0.1-0.1-0.1-0.2c0-0.1,0-0.1,0-0.2
		c0-0.1,0.1-0.1,0.2-0.2c0.1,0,0.2,0,0.2,0c0,0,0.1,0,0.1,0c0.2,0,0.3,0,0.5,0c0.9,0,1.4-0.3,1.6-0.4l-0.9-1.1
		c0.1-0.1,0.4-0.2,0.4-0.2c0.1-0.1,0.3-0.2,0.4-0.2c0.3-0.1,0.8-0.2,1.4-0.4c1.2-0.4,2.8-1,4.5-1.9c3.2-1.8,6.4-4,9.6-4.8
		c0.8-0.2,1.6-0.3,2.3-0.3c0.9,0,1.7,0.1,2.3,0.2c0.6,0.1,1.3,0.6,2,1.3c0.7,0.7,1.4,1.5,2.1,2.2c0.7,0.8,1.4,1.4,1.6,1.6
		c0.1,0.1,0.1,0.1,0.1,0.1c0,0,0.1,0.1,0.3,0.2c0.2,0.1,0.4,0.3,0.7,0.4c0.5,0.3,1.1,0.6,1.7,0.7c0-0.2-0.3-1.4,0.2-1.1
		c0.2,0.1,0.3,0.3,0.5,0.5c0.2,0.2,0.4,0.4,0.7,0.5c0.4,0.3,0.8,0.5,1.2,0.5c0.1,0,0.2,0,0.4-0.1c-0.2-0.3-0.4-0.5-0.4-0.5
		c0,0-0.1-0.1-0.1-0.2c0-0.1,0-0.2,0.1-0.2c0.1,0,0.2-0.1,0.4-0.1c0.1,0,0.1,0,0.2,0c0.2,0,0.4,0,0.7,0c0.5,0,1.3,0,1.9-0.1
		c0.9-0.2,1.7-0.4,2-0.5c0.1,0,0.2-0.1,0.2-0.1c0,0,0.2-0.1,0.5-0.1c0.1,0,0.3,0,0.4,0.1c0.2,0.1,0.3,0.3,0.4,0.6
		c0.1,0.2,0.2,0.4,0.2,0.6c0.3,0.6,0.8,1.4,0.8,2.6c0,0.2,0,0.4,0,0.6c0,0.3-0.1,1-0.5,1.5c-0.6,0.8-1.2,0.9-1.3,0.9
		c0,0-0.1,0-0.3,0c-0.1,0-0.2,0-0.4,0c-0.4-0.1-0.8-0.3-1.1-0.3c-0.1,0-0.2,0-0.3,0.1c-0.3,0.2-0.4,0.4-0.4,0.7
		c0,0.3,0.1,0.5,0.2,0.6l0,0c0,0,0,0,0,0.1c0,0.1,0.1,0.1,0.1,0.2c0.1,0.2,0.4,0.3,0.7,0.3c0,0,0.1,0,0.1,0c0.3,0,0.6-0.2,0.8-0.4
		c0.2-0.2,0.4-0.4,0.5-0.5l0,0l0.5-0.8c0,0,0,0,0.1-0.1c0,0,0.1-0.1,0.2-0.1c0,0,0.1,0,0.1,0c0.1,0.1,0.1,0.2,0.1,0.2
		c0,0.1,0,0.1,0,0.1c0,0,0,0.1,0,0.1c0,0-0.1,0.1-0.1,0.2c-0.1,0.1-0.1,0.2-0.2,0.3c-0.2,0.2-0.3,0.4-0.3,0.4l0,0c0,0,0,0.1,0,0.1
		c0,0.1,0,0.1,0.1,0.2c0.2,0.1,0.3,0.3,0.4,0.5c0.1,0.1,0.2,0.3,0.4,0.3c0.4,0.1,0.7-0.3,0.9-0.6c0.2-0.2,0.3-0.4,0.4-0.6
		c0.1-0.3,0.1-0.7,0.1-1c0-0.2,0-0.3,0-0.4c0-0.1,0-0.2,0-0.2c0,0,0,0,0-0.1c0-0.1,0-0.1,0-0.2c0-0.1,0.1-0.1,0.2-0.1l0.1,0
		c0.1,0,0.2,0.1,0.2,0.1c0,0.1,0,0.1,0,0.1v0.3c0,0.2,0,0.5,0,0.8c0,0.3,0,0.5-0.1,0.7c0,0,0,0.1,0,0.1c0,0,0,0.1,0,0.1
		c0,0,0,0,0.1,0.1c0.1,0,0.2,0,0.2,0c0,0,1.3,0,1.3,0h0c0.1,0,0.2,0,0.4-0.1c0.1-0.1,0.3-0.3,0.3-0.6c0-0.1,0-0.1,0-0.2
		c0-0.3-0.1-0.4-0.2-0.6C888.3,43.3,888.1,43.2,888.1,43.1 M850.7,42.2C850.7,42.2,850.7,42.3,850.7,42.2c0,0.2,0,0.2,0.1,0.2
		c0.1,0,0.2,0.1,0.5,0.1c0.1,0,0.2,0,0.3,0c0.2,0,0.3,0,0.4-0.1c0-0.1,0.1-0.2,0.1-0.3c0.1-0.2,0.1-0.4,0.2-0.5c0-0.2,0-0.3,0-0.5
		c0-0.1,0-0.2,0-0.3c-0.2-0.2-0.5-0.4-0.6-0.5c-0.1-0.1-0.2-0.1-0.3-0.1c-0.1,0-0.2,0-0.4,0.1c-0.1,0.1-0.3,0.2-0.4,0.3
		c-0.1,0.1-0.2,0.2-0.2,0.3c0,0.1,0,0.1,0.1,0.2c0.2,0.3,0.2,0.5,0.2,0.7C850.7,42,850.7,42.1,850.7,42.2 M850.1,40.1
		c-0.5,0-0.8,0.2-1,0.4c0,0,0.1,0,0.2,0c0.1,0,0.2,0,0.2,0c0.2,0,0.5,0,0.6,0.1c0.1-0.2,0.3-0.3,0.4-0.4
		C850.4,40.1,850.3,40.1,850.1,40.1 M823.7,44.6c-0.4,0.4-0.5,0.8-0.5,1.2c0,0.2,0,0.4,0.1,0.5c0,0,0-0.1,0-0.2
		c0.1-0.5,0.4-0.8,0.7-1c-0.1-0.1-0.1-0.2-0.2-0.3C823.8,44.7,823.7,44.6,823.7,44.6 M887,45.6L887,45.6l0-0.1l-0.5,0h0h0
		c-0.1,0-0.1,0-0.2,0c0.2,0.5,0.4,0.9,0.7,1c0.3,0.2,0.7,0.2,0.9,0.2c0,0,0,0,0.1,0c0,0-0.1,0-0.1-0.1C887.2,46.3,887,45.9,887,45.6
		 M883.1,45.5c-0.1-0.1-0.1-0.1-0.1-0.2c-0.2,0.4-0.3,0.7-0.3,1c0,0.6,0.3,1,0.5,1.2c0,0,0-0.1,0-0.2c0-0.2-0.1-0.3-0.1-0.5
		c0-0.4,0.2-0.7,0.3-0.9l0,0l0.1-0.1c0,0,0,0,0-0.1C883.3,45.7,883.2,45.6,883.1,45.5 M854.9,39.5c0.1,0,0.2,0,0.3,0
		c0.1,0,0.2,0,0.2,0h0c0.1,0,0.1,0,0.1,0c-0.2-0.5-0.4-0.8-0.7-1c-0.3-0.2-0.7-0.3-0.9-0.3c-0.1,0-0.1,0-0.2,0c0,0,0.1,0,0.1,0.1
		c0.7,0.3,0.9,0.8,1,1v0L854.9,39.5z M879.2,44.2c-0.2,0.3-0.2,0.7-0.2,0.9v0c0,0,0-0.1,0.1-0.1c0.3-0.6,0.8-0.8,1.1-0.9
		c0-0.1,0-0.2,0-0.3c0-0.1,0-0.2,0.1-0.4c0,0,0,0,0,0C879.7,43.7,879.4,44,879.2,44.2 M881.2,41.7c0,0.3,0.2,0.7,0.4,0.9
		c0.1,0.2,0.4,0.2,0.6,0.3c0.2,0.1,0.5,0.1,0.7,0.1c0.2,0,0.7-0.1,0.5-0.4c-0.1-0.1-0.2-0.2-0.3-0.4c-0.1-0.2-0.2-0.4-0.2-0.5
		c-0.1-0.3-0.2-0.5-0.2-0.8c0-0.1-0.1-0.2-0.1-0.3c-0.1-0.1-0.1-0.1-0.2-0.1c-0.1,0-0.2,0-0.3,0.2c-0.4,0.5-0.5,0.6-0.7,0.7
		C881.3,41.4,881.2,41.5,881.2,41.7 M881.3,40.5L881.3,40.5c0.1-0.1,0.2-0.2,0.4-0.3c0.1-0.1,0.1-0.1,0.2-0.2
		c-0.3-0.1-0.5-0.2-0.8-0.2c-0.4,0-0.7,0.2-1,0.4c-0.1,0.1-0.2,0.2-0.3,0.3c0,0,0.1,0,0.1-0.1c0.2-0.1,0.5-0.1,0.7-0.1
		C880.9,40.3,881.2,40.4,881.3,40.5L881.3,40.5z M824.3,36.5c-0.3-0.2-0.6-0.2-0.8-0.3c0,0,0.1,0.1,0.1,0.1c0.6,0.4,0.7,0.9,0.7,1.1
		c0,0,0.1,0,0.1,0l0,0l0,0l0,0c0,0,0.3,0.2,0.5,0.4C825.1,37.1,824.7,36.7,824.3,36.5 M821.4,38.8c-0.4,0-0.8,0.2-1,0.4
		c-0.1,0.1-0.2,0.2-0.3,0.3c0,0,0.1,0,0.1-0.1c0.2-0.1,0.5-0.1,0.7-0.1c0.2,0,0.4,0,0.5,0.1c0.1-0.2,0.2-0.3,0.4-0.5
		C821.7,38.8,821.5,38.8,821.4,38.8 M825.2,39L825.2,39L825.2,39c0-0.1,0-0.3-0.2-0.4c-0.2-0.1-0.3-0.3-0.5-0.4
		c-0.1-0.1-0.2-0.2-0.2-0.2l0,0c0,0,0,0-0.1,0c-0.1,0-0.2,0-0.3,0.1c0,0-0.1,0-0.1,0.1c-0.1,0-0.1,0.1-0.2,0.1
		c-0.2,0.1-0.4,0.2-0.6,0.4c0,0.1,0.1,0.1,0.1,0.2c0.3,0.3,0.7,0.7,1.3,1c0.2,0.1,0.5,0.2,0.7,0.2c0-0.1,0-0.2,0-0.3
		C825,39.3,825.2,39,825.2,39L825.2,39z M821.9,22.8c0.3,0.9,1.1,2.9,1.5,3.9c0.1,0.3,0.2,0.5,0.2,0.5c0,0,0.2,0.5,0.2,1
		c0,0.2-0.1,0.5-0.2,0.7c-0.2,0.3-0.4,0.5-0.4,0.5v0l0,0l0,0l0,0c0,0,0,0.1-0.1,0.1c0,0.1-0.1,0.2-0.1,0.4c0,0.2,0,0.4,0.2,0.6
		c0,0,0.2,0.3,0.3,0.6c0.2,0.3,0.4,0.7,0.5,0.9c0,0.1,0.1,0.1,0.1,0.2c0,0.1,0.1,0.1,0.1,0.1l0,0c0-0.1,0-0.2,0-0.3c0,0,0-0.1,0-0.1
		v-0.1c0-0.2,0-0.5,0-0.6c0-0.2,0.1-0.3,0.3-0.3c0.1,0,0.2,0.1,0.3,0.2c0,0.1,0.1,0.4,0.2,0.7v0c0,0,0,0,0,0.1
		c0,0.1,0.1,0.1,0.1,0.2c0.1,0.2,0.2,0.4,0.4,0.7c0.3,0.5,0.9,1.1,1.6,1.4c0-0.1,0-0.2,0-0.2c0-0.3,0-0.6,0-0.7c0,0,0,0,0-0.1
		c0,0,0-0.1,0-0.1c0,0,0.1-0.1,0.1-0.1h0h0c0.1,0,0.1,0,0.1,0.1c0,0,0.1,0.1,0.1,0.1c0,0,0.1,0.1,0.1,0.1h0l0,0c0,0,0,0.1,0.1,0.2
		c0.1,0.1,0.2,0.2,0.3,0.4c0.2,0.3,0.6,0.8,1,1.3c0.8,0.8,1.7,1.7,2.6,1.9c-0.1-0.2-0.1-0.5-0.1-0.7c0-0.5,0.1-1,0.3-1.4
		c-0.1,0.1-0.2,0.1-0.3,0.2l-1.2,1l0.1-1.6c0.1-1.6,0.6-3,1.6-4c0.3-0.3,0.6-0.6,1-0.8c-0.1,0-0.3-0.1-0.4-0.1c-0.1,0-0.1,0-0.2,0
		l-0.3-0.1c-2.1-0.3-5.2-1.2-8.1-4c-0.4-0.3-0.7-0.9-0.7-1.5c0-0.3,0.1-0.7,0.3-1c0.2-0.3,0.6-0.6,1.2-0.8v0h0l0,0l0,0l0.1,0
		c0.1,0,0.1-0.1,0.1-0.2c0-0.1-0.1-0.3-0.5-0.6c-0.5-0.4-0.8-0.6-1-0.8c-0.2-0.2-0.3-0.2-0.3-0.2l0,0l0,0l0,0c0,0-0.1,0-0.3,0.2
		c-0.3,0.3-1.2,1-1.2,2C821.9,22.5,821.9,22.6,821.9,22.8 M839.6,17.6c0.2,0.1,0.3,0.2,0.5,0.3c0,0,0,0,0,0l0.1,0
		c0,0,0.2-0.2,0.4-0.4c0.1-0.1,0.5-0.3,0.4-0.4c0-0.2-1,0-1.2,0.1c-0.1,0-0.3,0.1-0.3,0.1c0,0-0.1,0-0.1,0.1l0,0
		C839.3,17.5,839.6,17.5,839.6,17.6 M836.1,19.4L836.1,19.4c0-0.2,0.1-0.4,0.2-0.5c0.1-0.2,0.4-0.4,0.3-0.6
		c-0.1-0.2-0.2-0.2-0.2-0.4c0-0.1,0-0.2,0.1-0.2c0.1-0.1,0.2-0.1,0.4-0.2c0.4-0.1,1.7-0.6,1.7-0.6c0.1-0.1,0.2-0.2,0.3-0.4
		c0.1-0.1,0.4-0.3,0.9-0.4c1.3-0.3,4.9-0.5,5.3-0.5c0.1,0,0.2,0.1,0.4,0.2c0.2,0.2,0.5,0.4,0.7,0.7c0.1,0.1,0.2,0.2,0.2,0.3
		c0.1,0.1,0.1,0.1,0.1,0.1l0.1,0.1l0.1-0.1c0,0,0.1,0,0.1-0.1c0.1,0,0.2,0,0.3,0c0.1,0,0.3,0,0.5,0.1c0.1,0.1,0.3,0.3,0.3,0.6
		c0,0.2,0.1,0.3,0.1,0.5c0,0.9-0.6,1.7-1,2.2l0,0l0,0.1c1.4,2,1.6,3.8,1.6,4.4c-0.2-0.2-0.4-0.6-0.4-0.6c0,0,0-0.1-0.1-0.1
		c-0.1-0.1-0.1-0.1-0.2-0.2c0,0-0.1,0-0.1,0c-0.1,0-0.1,0-0.2,0.1c0,0.1-0.1,0.1-0.1,0.2c0,0.1,0,0.2,0.1,0.3
		c0.6,1.7,0.7,3.6,0.7,4.6c0,0,0,0.1,0,0.1c-0.2-0.4-0.6-0.9-0.6-0.9c-0.1-0.2-0.2-0.3-0.4-0.3c-0.1,0-0.1,0-0.2,0.1
		c0,0.1-0.1,0.1-0.1,0.2c0,0,0,0.1,0,0.1c0.3,0.8,0.4,1.6,0.4,2.3c0,0.9-0.2,1.7-0.4,2.3c-0.1,0.3-0.2,0.5-0.3,0.7
		c0,0,0,0.1-0.1,0.1c0-0.1-0.1-0.2-0.2-0.3c-0.1-0.2-0.3-0.5-0.4-0.8c0-0.1-0.1-0.2-0.1-0.3c-0.1-0.1-0.1-0.1-0.2-0.1
		c-0.1,0-0.1,0-0.2,0.1c0,0.1-0.1,0.1-0.1,0.2c0,0,0,0.1,0,0.1c0,0.2,0,0.3,0,0.5c0,1.6-0.6,2.7-1.3,3.4c-0.3,0.4-0.6,0.6-0.9,0.8
		c-0.1,0.1-0.2,0.1-0.3,0.2c0-0.4,0-1.7,0-2.3c0-0.1,0-0.2-0.1-0.3c0-0.1-0.1-0.1-0.2-0.1c-0.1,0-0.1,0-0.1,0.1c0,0-0.1,0.1-0.1,0.2
		c-0.5,1-0.9,1.6-1.3,2c-0.4,0.3-0.7,0.4-1,0.4c-0.1,0-0.2,0-0.3,0c0-0.1,0.1-0.2,0.2-0.4c0.1-0.3,0.3-0.7,0.3-1
		c0-0.3-0.1-0.5-0.3-0.7c-0.2-0.2-0.5-0.3-1-0.3c-0.1,0-0.3,0-0.5,0c-1.1,0.1-2.6,0.8-3.9,1.5c-1.1,0.5-1.9,1.1-2.2,1.2
		c-0.3-0.5-0.3-1-0.3-1.4c0-0.6,0.2-1.1,0.4-1.5c0.1-0.2,0.2-0.3,0.3-0.4c0,0,0.1-0.1,0.1-0.1l0,0c0,0,0,0,0.1-0.1
		c0-0.1,0.1-0.1,0.1-0.2c0-0.1,0-0.1-0.1-0.2c-0.1,0-0.1-0.1-0.2-0.1c-0.5,0.1-1,0.2-1.3,0.4c-0.2,0.1-0.4,0.3-0.5,0.4
		c0.1-1.7,0.7-2.8,1.4-3.5c0.7-0.7,1.4-1,1.6-1.1c0.1-0.1,0.2-0.1,0.3-0.2c0.1-0.1,0.1-0.1,0.1-0.2c0,0,0-0.1,0-0.1
		c0-0.1-0.1-0.1-0.1-0.1c-0.1-0.1-0.3-0.1-0.3-0.1c0,0-0.4-0.1-0.8-0.2c-0.2,0-0.4-0.1-0.5-0.1c-0.1,0-0.1,0-0.1,0
		c1.1-1.4,2.8-1.7,3.7-1.7c0.2,0,0.4,0,0.5,0c0.1,0,0.1,0,0.1,0c0,0,0,0,0,0c0.1,0,0.1,0,0.2,0c0.1,0,0.2,0,0.3-0.1
		c0.1-0.1,0.1-0.1,0.1-0.2c0-0.1-0.1-0.2-0.1-0.2c0,0-0.1-0.1-0.1-0.1c0,0,0,0,0,0c-0.1,0-0.2-0.1-0.7-0.4c-0.1-0.1-0.2-0.1-0.3-0.2
		c0-0.1-0.1-0.1-0.1-0.1l0,0c0.1,0,0.3,0,0.5,0c0.3,0,0.6,0,0.7,0.1c0.4,0.2,0.8,0.2,1.1,0.2c0.6,0,1-0.2,1.3-0.5
		c0.3-0.3,0.4-0.6,0.5-0.8c0.1-0.1,0.1-0.3,0.1-0.4c0-0.3-0.1-0.5-0.4-0.5c-0.1,0-0.3-0.1-0.6-0.1c-0.3,0-0.6,0.1-0.8,0.3
		c-0.2,0.2-0.3,0.2-0.4,0.2c-0.1,0-0.1,0-0.1,0l0,0c0,0-0.6-0.5-0.6-0.5c-0.2-0.1-0.4-0.1-0.4-0.2c-0.1-0.1-0.1-0.1-0.1-0.1l0,0
		c0,0,0.1,0,0.1-0.1c0.3-0.2,0.5-0.2,0.7-0.2c0.3,0,0.6,0.1,1.3,0.1c0.1,0,0.2,0,0.3,0c0.5,0,0.8-0.2,1-0.4c0.2-0.2,0.2-0.5,0.2-0.7
		c0-0.3-0.1-0.5-0.1-0.6c0,0-0.3-0.9-1-2c-0.2-0.3-0.4-0.4-0.7-0.4c-0.4,0-0.7,0.2-1,0.4c-0.3,0.2-0.4,0.4-0.5,0.4
		c-0.2,0.2-0.5,0.3-0.7,0.3c-0.2,0-0.5-0.1-0.6-0.3C836.3,19.9,836.2,19.6,836.1,19.4 M825.6,21.5c0.3-0.4,0.4-0.8,0.4-1.1
		c0-0.3-0.1-0.6-0.3-0.8c-0.1-0.1-0.2-0.2-0.3-0.3c0,0.1,0,0.1,0,0.2c0,0.1,0,0.3,0,0.4c0,0.5-0.2,0.8-0.3,1
		C825.3,21.1,825.5,21.3,825.6,21.5 M820.1,20.9c0.1,0.2,0.1,0.4,0.2,0.6c0,0.1,0.2,0.6,0.2,0.6c0,0,0.1,0,0.1-0.1l0,0
		c0.2-0.1,0.4-0.2,0.6-0.2c0.1,0,0.2,0,0.3,0.1c0.1-0.2,0.1-0.4,0.2-0.6c0.1-0.3,0.2-0.5,0.2-0.6c0-0.1,0-0.2,0-0.3
		c0-0.2,0-0.3-0.1-0.4c-0.1-0.1-0.2-0.2-0.3-0.2c-0.1,0-0.2,0-0.3,0c-0.3,0.1-0.8,0.2-1,0.5C820,20.5,820.1,20.7,820.1,20.9
		 M821.3,19.3c0,0,0.1,0,0.1,0c0.2,0,0.4,0.1,0.5,0.2c-0.1-0.6-0.3-0.9-0.5-1.1c-0.3-0.2-0.6-0.3-0.9-0.3c-0.1,0-0.1,0-0.2,0
		c0.1,0,0.1,0.1,0.2,0.1C821.1,18.5,821.2,19,821.3,19.3 M819.2,24.3c0-0.1,0-0.1,0-0.2c0-0.1-0.5-0.3-0.5-0.3c-0.2,0-0.4,0-0.6,0.1
		c-0.2,0.2-0.4,0.6-0.4,1c0,0.1,0,0.3,0.1,0.4c0.1,0.1,0.2,0.2,0.5,0.3c0.4,0.1,0.8,0.2,1.2,0.3c-0.1-0.5-0.2-0.9-0.2-1.4
		C819.2,24.5,819.2,24.4,819.2,24.3 M821.5,28.4c0.6,0.5,0.9,0.7,1.1,0.7c0.1,0,0.2-0.1,0.3-0.2c0.1-0.1,0.1-0.2,0.2-0.3
		c0.1-0.1,0.1-0.3,0.1-0.4c0-0.3-0.1-0.6-0.2-0.7v0c-0.1-0.1-1.4-3.2-1.8-4.5c0-0.2-0.1-0.4-0.1-0.4l0,0c0,0-0.1,0-0.1,0
		c-0.1,0-0.2,0-0.4,0.1c-0.8,0.5-1.1,1.2-1.1,2C819.7,26.1,820.8,27.8,821.5,28.4 M820.3,43.1c-0.1,0.3-0.2,0.6-0.2,0.8
		c0,0,0,0,0,0.1c0,0,0-0.1,0.1-0.1c0.2-0.5,0.6-0.7,0.9-0.8c-0.1-0.2-0.1-0.4-0.1-0.6C820.6,42.6,820.4,42.9,820.3,43.1 M818,22
		C818,22.1,817.9,22.1,818,22L818,22L818,22l-0.1,0.1l0,0.1c0,0,0,0.1,0,0.2c0,0.1,0,0.3,0.3,0.4c0.3,0.2,0.8,0.5,1.2,0.8
		c0.1-0.4,0.4-0.7,0.7-1l-0.6-1.2l0,0l0,0l-0.1-0.1c-0.1-0.1-0.1-0.1-0.2-0.1c-0.1,0-0.2,0-0.3,0.1C818.4,21.5,818.1,21.8,818,22
		 M817.7,23.6c-0.2-0.1-0.5-0.1-0.7-0.1c-0.5,0-0.8,0.2-1,0.5c-0.1,0.2-0.2,0.4-0.3,0.5c0.1,0,0.1-0.1,0.2-0.1
		c0.4-0.2,0.7-0.3,0.9-0.3c0.2,0,0.3,0,0.4,0.1C817.4,23.9,817.6,23.7,817.7,23.6C817.7,23.6,817.7,23.6,817.7,23.6 M816.7,20.8
		c-0.1,0-0.2,0-0.2,0.1c0.1-0.1,0.2-0.2,0.3-0.3c0.2-0.2,0.5-0.3,0.8-0.3c0.3,0,0.6,0.1,1,0.4c-0.1,0-0.1,0.1-0.2,0.1
		c-0.1,0.1-0.2,0.2-0.3,0.3c-0.1-0.1-0.5-0.3-1-0.3C817,20.7,816.9,20.7,816.7,20.8"/>
	<path class="st2" d="M869.5,93.8c-3.2,2.1-14.6,0.9-15.8,6.1v12.3c4.5-5.3,16.4-4.8,19.6-6.9L869.5,93.8z M837.1,93.8l-3.9,11.6
		c3.2,2.1,15.2,1.6,19.7,6.9V99.9C851.7,94.7,840.3,95.9,837.1,93.8 M840,110.3c-1.9,0.1-3.9,0.1-7.6-0.7c-0.1,0.7-0.2,1.3-0.3,2
		c3.7,0.4,5.6,0.1,7.4-0.2c1.9-0.3,3.8-0.6,7.8-0.1c1.6,0.2,2.7,0.4,3.6,0.6c-0.8-0.3-1.9-0.6-3.3-0.9
		C843.8,110.2,841.9,110.2,840,110.3 M856.6,111.1c0.7-0.3,1.6-0.6,2.7-0.9c3.7-1,5.6-0.9,7.5-0.8c1.8,0.1,3.6,0.1,7.2-0.8
		c-0.1-0.7-0.3-1.5-0.4-2.2c0,0,0,0,0,0c-1.4,0.8-3.7,1.2-6.4,1.7C863.7,108.7,859.5,109.4,856.6,111.1 M874.2,109.6
		c-3.8,0.8-5.7,0.7-7.6,0.7c-2-0.1-3.8-0.1-7.6,0.7c-1.4,0.3-2.4,0.6-3.3,0.9c0.9-0.2,2.1-0.4,3.6-0.6c4-0.4,5.9-0.1,7.8,0.1
		c1.8,0.3,3.7,0.5,7.4,0.2C874.5,111,874.3,110.3,874.2,109.6 M832.5,108.6c0.1-0.7,0.3-1.5,0.4-2.2l0,0c1.4,0.8,3.7,1.2,6.4,1.7
		c3.5,0.6,7.6,1.4,10.6,3.1c-0.7-0.3-1.6-0.6-2.7-0.9c-3.7-1-5.6-0.9-7.5-0.8C838,109.5,836.1,109.5,832.5,108.6"/>
	<path class="st2" d="M816.5,62.8l0.5,0.9c0.2,0.4,0.6,0.6,1,0.6h0c-0.2,0.5-0.4,1.1-0.4,1.9c0,0.1,0,0.3,0,0.5c0,0.4,0,1-0.1,1.2
		c-0.1,0.1-0.2,0.2-0.3,0.3c-0.3,0.3-0.7,0.7-0.5,1.4v0v0c0.2,0.6,0.8,0.8,1.2,0.8c0.2,0,0.3,0.1,0.4,0.1c0.3,0.1,0.6,0.6,0.8,0.9
		c0.1,0.1,0.2,0.3,0.3,0.4c0.5,0.7,1.1,1.1,1.7,1.4c-0.5,0.2-0.7,0.8-0.6,1.3l0.2,1c0.1,0.5,0.6,0.9,1.2,0.9c0.1,0,0.2,0,0.3,0
		l1-0.2c0.4-0.1,0.8-0.4,0.9-0.8c0.4,0.4,1,0.7,1.7,1c0.1,0.1,0.3,0.1,0.4,0.1c0.4,0.1,0.9,0.3,1.1,0.5c0.1,0.1,0.2,0.2,0.2,0.4
		c0.2,0.3,0.5,0.9,1.2,0.9h0l0,0v0c0.7,0,1-0.5,1.2-0.9c0.1-0.1,0.2-0.3,0.2-0.4c0.2-0.2,0.8-0.4,1.1-0.5c0.2,0,0.3-0.1,0.4-0.1
		c0.8-0.3,1.4-0.7,1.8-1.2c0,0.2,0.1,0.4,0.2,0.5c0.2,0.2,0.5,0.4,0.8,0.4l1.1,0.1c0,0,0.1,0,0.1,0c0.6,0,1.1-0.5,1.2-1.1l0.1-1.1
		c0-0.3-0.1-0.6-0.3-0.9c-0.1-0.1-0.2-0.2-0.2-0.2c0.5-0.3,1-0.7,1.5-1.3c0.1-0.1,0.2-0.2,0.3-0.4c0.2-0.3,0.6-0.8,0.8-0.9
		c0.1-0.1,0.3-0.1,0.4-0.1c0.4-0.1,1-0.2,1.2-0.8l0,0v0l0,0c0.2-0.6-0.2-1.1-0.5-1.4c-0.1-0.1-0.2-0.2-0.3-0.3
		c-0.1-0.3-0.1-0.8-0.1-1.2c0-0.2,0-0.3,0-0.5c0-0.9-0.3-1.6-0.6-2.1c0,0,0.1,0,0.1,0c0.5,0,0.9-0.3,1.1-0.7l0.4-1
		c0.1-0.3,0.1-0.6,0-0.9c-0.1-0.3-0.3-0.5-0.6-0.7l-1-0.4c-0.2-0.1-0.3-0.1-0.5-0.1c-0.3,0-0.5,0.1-0.7,0.2
		c-0.1-0.6-0.3-1.2-0.8-1.8c-0.1-0.1-0.2-0.2-0.3-0.4c-0.2-0.3-0.6-0.8-0.6-1.1c0-0.1,0-0.3,0-0.4c0-0.4,0.1-1-0.4-1.4l-0.1,0.1h0
		l0.1-0.1c-0.2-0.1-0.4-0.2-0.6-0.2c-0.3,0-0.6,0.1-0.8,0.2c-0.1,0.1-0.3,0.1-0.4,0.2c0,0-0.1,0-0.1,0c-0.3,0-0.7-0.1-1.1-0.3
		c-0.1-0.1-0.3-0.1-0.4-0.1c-0.5-0.1-0.9-0.2-1.4-0.2c-0.2,0-0.5,0-0.8,0.1c0.1-0.2,0.1-0.4,0.1-0.6c0-0.3-0.2-0.6-0.4-0.8l-0.8-0.7
		c-0.2-0.2-0.5-0.3-0.8-0.3c-0.3,0-0.7,0.1-0.9,0.4L827,54c-0.3,0.3-0.4,0.8-0.2,1.2c-0.2,0-0.4,0-0.6,0c-0.4,0-0.9,0.1-1.4,0.2
		c-0.1,0-0.3,0.1-0.4,0.1c-0.3,0.1-0.8,0.3-1.1,0.3c-0.1,0-0.1,0-0.1,0c-0.1,0-0.3-0.1-0.4-0.2c-0.2-0.1-0.5-0.2-0.8-0.2
		c-0.2,0-0.5,0.1-0.6,0.2l0,0c-0.5,0.4-0.5,1-0.4,1.4c0,0.2,0,0.3,0,0.4c0,0.3-0.4,0.8-0.6,1.1c-0.1,0.1-0.2,0.3-0.3,0.4
		c-0.5,0.7-0.7,1.4-0.8,2.1c-0.2-0.2-0.5-0.3-0.8-0.3c-0.2,0-0.4,0.1-0.6,0.2l-0.9,0.5c-0.3,0.2-0.5,0.4-0.6,0.7
		C816.3,62.2,816.3,62.6,816.5,62.8"/>
	<path class="st2" d="M828.7,60.5c1.2,0,2.2,0.8,2.4,2c0.1,0,0.2,0,0.3,0c1.1,0,2,0.7,2.3,1.7c0.4,1.1-0.1,2.3-1.1,2.9
		c0.2,0.4,0.3,0.9,0.2,1.4c-0.1,0.6-0.5,1.2-1,1.6c-0.4,0.3-0.9,0.5-1.4,0.5c-0.6,0-1.2-0.2-1.7-0.6c-0.5,0.4-1.1,0.7-1.7,0.7
		c-0.5,0-1-0.2-1.4-0.5c-1-0.7-1.3-2-0.8-3c-0.4-0.2-0.8-0.6-1-1c-0.3-0.6-0.3-1.2-0.1-1.9c0.3-1,1.3-1.7,2.3-1.7c0.1,0,0.2,0,0.3,0
		c0.1-0.5,0.3-0.9,0.7-1.3C827.4,60.8,828,60.5,828.7,60.5"/>
	<path class="st1" d="M832.8,71.9c1,1.9,0.4,3-1.4,3.7c-0.5,0.2-1.5,0.4-1.9,0.9c-0.3,0.4-0.5,0.9-0.7,0.9c-0.2,0-0.4-0.5-0.7-0.9
		c-0.5-0.5-1.4-0.7-1.9-0.9c-1.7-0.6-2.3-1.7-1.3-3.7c0.2-0.4,0.5-1.1,1-1.7c0.4,0.2,0.8,0.3,1.3,0.3c0.6,0,1.2-0.2,1.7-0.7
		c0.5,0.4,1,0.6,1.7,0.6c0.5,0,0.9-0.1,1.3-0.4C832.2,70.8,832.6,71.5,832.8,71.9 M835.9,73.8l-1.3-0.4c-0.1,0-0.3,0.1-0.3,0.2
		l0.1,1.3c0,0.1,0.1,0.3,0.2,0.3l1.1,0.1c0.1,0,0.3-0.1,0.3-0.2l0.1-1.1C836.2,74,836.1,73.8,835.9,73.8 M824.8,67.1
		c-0.4-0.2-0.8-0.6-1-1c-0.3-0.5-0.3-1.2-0.2-1.7c-0.8-0.3-1.5-0.4-2-0.5c-2.1-0.4-3,0.6-3.1,2.4c0,0.5,0.1,1.5-0.3,2.1
		c-0.3,0.5-0.7,0.8-0.7,1v0c0.1,0.2,0.6,0.2,1.1,0.4c0.6,0.3,1.1,1.1,1.4,1.5c1.1,1.4,2.4,1.7,3.9,0.2c0.3-0.3,0.9-0.9,1.3-1.5
		C824.6,69.2,824.4,68.1,824.8,67.1 M839,66.2c-0.1-1.8-0.9-2.8-3.1-2.4c-0.5,0.1-1.3,0.2-2.1,0.5c0.3,1.1-0.2,2.2-1.2,2.7
		c0.2,0.4,0.3,0.9,0.2,1.4c-0.1,0.5-0.3,1-0.7,1.4c0.5,0.7,1,1.2,1.3,1.5c1.5,1.5,2.8,1.3,3.9-0.2c0.3-0.4,0.8-1.3,1.4-1.5
		c0.5-0.2,1-0.2,1.1-0.4c0.1-0.2-0.4-0.5-0.7-1C838.9,67.7,839,66.8,839,66.2 M823.2,73.7c0-0.1-0.2-0.2-0.3-0.2l-1.2,0.5
		c-0.1,0-0.2,0.2-0.2,0.3l0.2,1c0,0.1,0.2,0.2,0.3,0.2l1-0.2c0.1,0,0.2-0.2,0.2-0.3L823.2,73.7z M838.1,62.8l1.3,0.3
		c0.1,0.1,0.3,0,0.4-0.1l0.4-1c0.1-0.1,0-0.3-0.1-0.4l-1-0.4c-0.1-0.1-0.3,0-0.4,0.1l-0.7,1.1C837.9,62.6,837.9,62.8,838.1,62.8
		 M817.3,62.4l0.5,0.9c0.1,0.1,0.2,0.2,0.4,0.1l1.2-0.5c0.1-0.1,0.2-0.2,0.1-0.4l-0.9-1c-0.1-0.1-0.2-0.2-0.4-0.1l-0.9,0.5
		C817.2,62.1,817.2,62.3,817.3,62.4 M821.9,63.1c0.4,0.2,1.1,0.6,1.9,0.8c0.4-0.8,1.3-1.4,2.2-1.4c0.1,0,0.2,0,0.3,0
		c0.1-0.5,0.3-0.9,0.7-1.3c0.4-0.4,1-0.7,1.5-0.7c0-0.9-0.1-1.7-0.2-2.1c-0.3-2.1-1.5-2.7-3.2-2.2c-0.5,0.1-1.4,0.5-2.1,0.4
		c-0.5-0.1-0.9-0.5-1.1-0.3c-0.2,0.1,0,0.7,0,1.2c-0.1,0.7-0.7,1.4-1,1.9C819.8,60.8,819.9,62.1,821.9,63.1 M828.5,56
		c0.1,0.1,0.3,0.1,0.4,0l0.7-1.1c0.1-0.1,0.1-0.3,0-0.4l-0.8-0.7c-0.1-0.1-0.3-0.1-0.4,0l-0.7,0.8c-0.1,0.1-0.1,0.3,0,0.4L828.5,56z
		 M829,60.5c1,0.1,1.9,0.9,2.1,1.9c0.1,0,0.2,0,0.3,0c1,0,1.8,0.6,2.2,1.4c0.8-0.2,1.5-0.6,2-0.8c1.9-1,2.1-2.2,1.1-3.8
		c-0.3-0.5-1-1.2-1-1.9c-0.1-0.5,0.2-1,0-1.2h0c-0.2-0.1-0.6,0.2-1.1,0.3c-0.7,0.1-1.6-0.3-2.1-0.4c-1.8-0.5-2.9,0-3.2,2.2
		C829.1,58.8,828.9,59.7,829,60.5"/>
	<path class="st1" d="M825.5,66.4c0.1,0,0.3,0.1,0.4,0.1c0,0,0,0,0,0c0.1,0,0.1,0,0.2,0.1c0.1,0.1,0.1,0.3,0,0.4
		c-0.1,0.1-0.2,0.2-0.3,0.3c-0.5,0.7-0.3,1.6,0.3,2.1c0.7,0.5,1.6,0.3,2.1-0.3c0.1-0.1,0.1-0.2,0.2-0.4c0-0.1,0.1-0.1,0.2-0.2
		c0.1,0,0.3,0,0.3,0.1c0,0.1,0.1,0.2,0.2,0.3c0.5,0.7,1.5,0.8,2.1,0.3c0.7-0.5,0.8-1.5,0.3-2.1c-0.1-0.1-0.2-0.2-0.3-0.3h0
		c-0.1,0-0.1-0.1-0.1-0.2c0-0.1,0.1-0.3,0.2-0.3c0,0,0,0,0,0c0.1,0,0.2,0,0.4-0.1c0.8-0.3,1.2-1.1,1-1.9c-0.3-0.8-1.1-1.2-1.9-1
		c-0.1,0-0.3,0.1-0.4,0.2h0c-0.1,0-0.1,0.1-0.2,0c-0.1,0-0.2-0.2-0.2-0.3c0-0.1,0-0.2,0-0.4c0-0.8-0.7-1.5-1.5-1.5
		c-0.8,0-1.5,0.7-1.5,1.5c0,0.1,0,0.3,0.1,0.4c0,0.1,0,0.2,0,0.2c-0.1,0.1-0.2,0.1-0.4,0.1v0c-0.1-0.1-0.2-0.1-0.3-0.2
		c-0.8-0.3-1.7,0.2-1.9,1C824.3,65.3,824.7,66.2,825.5,66.4"/>
	<path class="st2" d="M827.4,65.8c0-0.7,0.5-1.2,1.2-1.2c0.7,0,1.2,0.5,1.2,1.2c0,0.7-0.5,1.2-1.2,1.2C828,67,827.4,66.5,827.4,65.8
		"/>
	<path class="st2" d="M890.1,62.8l-0.5,0.9c-0.2,0.4-0.6,0.6-1,0.6h0c0.2,0.5,0.4,1.1,0.4,1.9c0,0.1,0,0.3,0,0.5c0,0.4,0,1,0.1,1.2
		c0.1,0.1,0.2,0.2,0.3,0.3c0.3,0.3,0.7,0.7,0.5,1.4l0,0v0c-0.2,0.6-0.8,0.8-1.2,0.8c-0.1,0-0.3,0.1-0.4,0.1
		c-0.3,0.1-0.6,0.6-0.8,0.9c-0.1,0.1-0.2,0.3-0.3,0.4c-0.5,0.7-1.1,1.1-1.7,1.4c0.5,0.2,0.7,0.8,0.6,1.3l-0.2,1
		c-0.1,0.5-0.6,0.9-1.2,0.9c-0.1,0-0.2,0-0.3,0l-1-0.2c-0.4-0.1-0.8-0.4-0.9-0.8c-0.4,0.4-1,0.7-1.6,1c-0.1,0.1-0.3,0.1-0.4,0.1
		c-0.4,0.1-0.9,0.3-1.1,0.5c-0.1,0.1-0.2,0.2-0.2,0.4c-0.2,0.3-0.5,0.9-1.2,0.9h0l0,0v0c-0.7,0-1-0.5-1.2-0.9
		c-0.1-0.1-0.2-0.3-0.2-0.4c-0.2-0.2-0.8-0.4-1.1-0.5c-0.2,0-0.3-0.1-0.4-0.1c-0.8-0.3-1.4-0.7-1.8-1.2c0,0.2-0.1,0.4-0.2,0.5
		c-0.2,0.2-0.5,0.4-0.8,0.4l-1.1,0.1c0,0-0.1,0-0.1,0c-0.6,0-1.1-0.5-1.2-1.1l-0.1-1.1c0-0.3,0.1-0.6,0.3-0.9
		c0.1-0.1,0.2-0.2,0.2-0.2c-0.5-0.3-1-0.7-1.5-1.3c-0.1-0.1-0.2-0.2-0.3-0.4c-0.2-0.3-0.6-0.8-0.8-0.9c-0.1-0.1-0.3-0.1-0.4-0.1
		c-0.4-0.1-1-0.2-1.2-0.8l0,0v0l0,0c-0.2-0.6,0.2-1.1,0.5-1.4c0.1-0.1,0.2-0.2,0.3-0.3c0.1-0.3,0.1-0.8,0.1-1.2c0-0.2,0-0.3,0-0.5
		c0-0.9,0.3-1.6,0.6-2.1c0,0-0.1,0-0.2,0c-0.5,0-0.9-0.3-1.1-0.7l-0.4-1c-0.1-0.3-0.1-0.6,0-0.9c0.1-0.3,0.3-0.5,0.6-0.7l1-0.4
		c0.2-0.1,0.3-0.1,0.5-0.1c0.3,0,0.5,0.1,0.7,0.2c0.1-0.6,0.3-1.2,0.7-1.8c0.1-0.1,0.2-0.2,0.3-0.4c0.2-0.3,0.6-0.8,0.6-1.1
		c0-0.1,0-0.3,0-0.4c0-0.4-0.1-1,0.4-1.4l0.1,0.1h0l-0.1-0.1c0.2-0.1,0.4-0.2,0.6-0.2c0.3,0,0.6,0.1,0.8,0.2
		c0.1,0.1,0.3,0.1,0.4,0.2c0,0,0.1,0,0.1,0c0.3,0,0.7-0.1,1.1-0.3c0.2-0.1,0.3-0.1,0.4-0.1c0.5-0.1,0.9-0.2,1.4-0.2
		c0.2,0,0.5,0,0.8,0.1c-0.1-0.2-0.1-0.4-0.1-0.6c0-0.3,0.2-0.6,0.4-0.8l0.8-0.7c0.2-0.2,0.5-0.3,0.8-0.3c0.3,0,0.7,0.1,0.9,0.4
		l0.7,0.8c0.3,0.3,0.4,0.8,0.2,1.2c0.2,0,0.4,0,0.6,0c0.4,0,0.9,0.1,1.4,0.2c0.1,0,0.3,0.1,0.4,0.1c0.3,0.1,0.8,0.3,1.1,0.3
		c0.1,0,0.1,0,0.1,0c0.1,0,0.3-0.1,0.4-0.2c0.2-0.1,0.5-0.2,0.8-0.2c0.2,0,0.5,0.1,0.6,0.2h0l0,0c0.5,0.4,0.5,1,0.4,1.4
		c0,0.2,0,0.3,0,0.4c0,0.3,0.4,0.8,0.6,1.1c0.1,0.1,0.2,0.3,0.3,0.4c0.5,0.7,0.7,1.4,0.8,2.1c0.2-0.2,0.5-0.3,0.8-0.3
		c0.2,0,0.4,0.1,0.6,0.2l0.9,0.5c0.3,0.2,0.5,0.4,0.6,0.7C890.3,62.2,890.2,62.6,890.1,62.8"/>
	<path class="st2" d="M877.9,60.5c-1.2,0-2.2,0.8-2.4,2c-0.1,0-0.2,0-0.3,0c-1.1,0-2,0.7-2.3,1.7c-0.4,1.1,0.1,2.3,1.1,2.9
		c-0.2,0.4-0.3,0.9-0.2,1.4c0.1,0.6,0.5,1.2,1,1.6c0.4,0.3,0.9,0.5,1.4,0.5c0.6,0,1.2-0.2,1.7-0.6c0.5,0.4,1.1,0.7,1.7,0.7
		c0.5,0,1-0.2,1.4-0.5c1-0.7,1.3-2,0.8-3c0.4-0.2,0.8-0.6,1-1c0.3-0.6,0.4-1.2,0.1-1.9c-0.3-1-1.3-1.7-2.3-1.7c-0.1,0-0.2,0-0.3,0
		c-0.1-0.5-0.3-0.9-0.7-1.3C879.1,60.8,878.5,60.5,877.9,60.5"/>
	<path class="st1" d="M873.8,71.9c0.2-0.4,0.6-1.1,1.1-1.7c0.4,0.2,0.8,0.4,1.3,0.4c0.6,0,1.2-0.2,1.7-0.6c0.5,0.4,1.1,0.7,1.7,0.7
		c0.4,0,0.9-0.1,1.3-0.3c0.5,0.6,0.8,1.3,1,1.7c1,1.9,0.4,3-1.3,3.7c-0.5,0.2-1.5,0.4-1.9,0.9c-0.3,0.4-0.5,0.9-0.7,0.9
		s-0.4-0.5-0.7-0.9c-0.5-0.5-1.4-0.7-1.9-0.9C873.4,75,872.8,73.8,873.8,71.9 M870.6,73.8c-0.1,0-0.3,0.1-0.2,0.3l0.1,1.1
		c0,0.1,0.1,0.3,0.3,0.2l1.1-0.1c0.1,0,0.3-0.1,0.2-0.3l0.1-1.3c0-0.1-0.1-0.3-0.3-0.2L870.6,73.8 M881.7,67.1
		c0.4,1,0.2,2.1-0.6,2.8c0.5,0.7,1,1.2,1.3,1.5c1.5,1.5,2.8,1.3,3.9-0.2c0.3-0.4,0.8-1.3,1.4-1.5c0.5-0.2,1-0.2,1.1-0.4v0
		c0.1-0.2-0.4-0.5-0.7-1c-0.4-0.6-0.2-1.6-0.3-2.1c-0.1-1.8-0.9-2.8-3.1-2.4c-0.5,0.1-1.2,0.2-2,0.5c0.2,0.6,0.1,1.2-0.2,1.7
		C882.5,66.5,882.2,66.9,881.7,67.1 M867.6,66.2c0,0.5,0.1,1.5-0.3,2.1c-0.3,0.5-0.7,0.8-0.7,1c0.1,0.2,0.6,0.2,1.1,0.4
		c0.6,0.3,1.1,1.1,1.4,1.5c1.1,1.4,2.4,1.7,3.9,0.2c0.3-0.3,0.9-0.9,1.3-1.5c-0.4-0.4-0.6-0.9-0.7-1.4c-0.1-0.5,0-1,0.2-1.4
		c-0.9-0.5-1.4-1.6-1.2-2.7c-0.8-0.3-1.6-0.4-2.1-0.5C868.5,63.5,867.7,64.4,867.6,66.2 M883.3,75.1c0,0.1,0.1,0.3,0.2,0.3l1,0.2
		c0.1,0,0.3-0.1,0.3-0.2l0.2-1c0-0.1-0.1-0.3-0.2-0.3l-1.2-0.5c-0.1,0-0.3,0.1-0.3,0.2L883.3,75.1z M868.5,62.8
		c0.1-0.1,0.2-0.2,0.1-0.4l-0.7-1.1c-0.1-0.1-0.2-0.2-0.4-0.1l-1,0.4c-0.1,0.1-0.2,0.2-0.1,0.4l0.4,1c0.1,0.1,0.2,0.2,0.4,0.1
		L868.5,62.8 M889.3,62.4c0.1-0.1,0-0.3-0.1-0.4l-0.9-0.5c-0.1-0.1-0.3,0-0.4,0.1l-0.9,1c-0.1,0.1,0,0.3,0.1,0.4l1.2,0.5
		c0.1,0.1,0.3,0,0.4-0.1L889.3,62.4 M884.7,63.1c1.9-1,2.1-2.2,1.1-3.8c-0.3-0.5-1-1.2-1-1.9c-0.1-0.5,0.1-1,0-1.2
		c-0.2-0.1-0.6,0.2-1.1,0.3c-0.7,0.1-1.6-0.3-2.1-0.4c-1.8-0.5-2.9,0-3.2,2.2c-0.1,0.5-0.2,1.3-0.2,2.1c0.6,0,1.1,0.3,1.5,0.7
		c0.4,0.4,0.6,0.8,0.7,1.3c0.1,0,0.2,0,0.3,0c0.9,0,1.8,0.5,2.2,1.4C883.5,63.6,884.2,63.3,884.7,63.1 M878.8,55
		c0.1-0.1,0.1-0.3,0-0.4l-0.7-0.8c-0.1-0.1-0.3-0.1-0.4,0l-0.8,0.7c-0.1,0.1-0.1,0.3,0,0.4l0.7,1.1c0.1,0.1,0.3,0.1,0.4,0L878.8,55z
		 M877.5,60.5c0-0.9-0.1-1.7-0.2-2.2c-0.3-2.1-1.5-2.7-3.2-2.2c-0.5,0.1-1.4,0.6-2.1,0.4c-0.5-0.1-0.9-0.5-1.1-0.3h0
		c-0.2,0.1,0,0.7,0,1.2c-0.1,0.7-0.7,1.4-1,1.9c-1,1.5-0.9,2.8,1.1,3.8c0.4,0.2,1.2,0.6,2,0.8c0.4-0.8,1.3-1.4,2.2-1.4
		c0.1,0,0.2,0,0.3,0C875.7,61.5,876.5,60.7,877.5,60.5"/>
	<path class="st1" d="M881,66.4c-0.1,0-0.3,0.1-0.4,0.1v0c-0.1,0-0.1,0-0.2,0.1c-0.1,0.1-0.1,0.3,0,0.4c0.1,0.1,0.2,0.2,0.3,0.3
		c0.5,0.7,0.3,1.6-0.3,2.1c-0.7,0.5-1.6,0.3-2.1-0.3c-0.1-0.1-0.1-0.2-0.2-0.4h0c0-0.1-0.1-0.1-0.2-0.2c-0.1,0-0.3,0-0.3,0.1h0
		c0,0.1-0.1,0.2-0.2,0.3c-0.5,0.7-1.5,0.8-2.1,0.3c-0.7-0.5-0.8-1.5-0.3-2.1c0.1-0.1,0.2-0.2,0.3-0.3h0c0.1,0,0.1-0.1,0.1-0.2
		c0-0.1-0.1-0.3-0.2-0.3c0,0,0,0,0,0c-0.1,0-0.2,0-0.4-0.1c-0.8-0.3-1.2-1.1-1-1.9c0.3-0.8,1.1-1.2,1.9-1c0.1,0,0.3,0.1,0.4,0.2h0
		c0.1,0,0.1,0.1,0.2,0c0.1,0,0.2-0.2,0.2-0.3c0-0.1,0-0.2,0-0.4c0-0.8,0.7-1.5,1.5-1.5c0.8,0,1.5,0.7,1.5,1.5c0,0.1,0,0.3-0.1,0.4
		c0,0.1,0,0.2,0,0.2c0.1,0.1,0.2,0.1,0.4,0.1v0c0.1-0.1,0.2-0.1,0.3-0.2c0.8-0.3,1.7,0.2,1.9,1C882.3,65.3,881.8,66.2,881,66.4"/>
	<path class="st2" d="M879.1,65.8c0-0.7-0.5-1.2-1.2-1.2c-0.7,0-1.2,0.5-1.2,1.2c0,0.7,0.5,1.2,1.2,1.2
		C878.6,67,879.1,66.5,879.1,65.8"/>
	<path class="st3" d="M581.9,39c0,0-5.8,0.2-9.8,1.9c-3,1.3-4.6,3.6-4.5,6.3c0.1,1.6,1.9,4.4,6.1,4.2c4.2-0.3,8.2-3.9,8.2-3.9V39z
		 M582,36.9l0-5.8c0-4.4-4.7-4.5-6.8-4.5c-1.6,0-4.7,0.1-6.2,2c-0.8,1-0.5,2.8-0.5,3.7c0.1,1.8-1.1,3.1-2.8,3.1
		c-1.7,0-3.1-1.4-3.1-3.1c0-3.5,3.2-5.5,3.2-5.5c2.4-1.7,6.6-2.5,10.1-2.5c3.6,0,6.7,0.7,9.4,2.8c1.4,1,2.5,2.8,2.5,6.5v17.1
		l5.5,1.5V54h-7.9l-3.5-3.8c0,0-5,4.2-11.2,4.2s-9.1-3.4-9.1-6.5c0,0-1-6.4,8.2-9.2c1.7-0.5,3.3-0.8,4.7-1.1
		C579.5,36.8,582,36.9,582,36.9 M710.2,79.6c-4.2-0.8-7.5-1.9-7.5-4.7c0-3.4,4-3.7,5.7-3.6c7.7,0.3,9.8,6.7,9.8,6.7h1.7l-1.7-8.5
		h-1.5l-0.5,1.8c-1.3-0.9-4.2-2.4-7.5-2.4c-6.8,0-10.7,3.9-10.7,8.3c0,4.3,5.6,6.1,9.8,7.3c4.1,1.2,9.5,1.4,9.5,5.4
		c0,4.9-6.7,4.8-6.7,4.8c-9.1,0-11.4-8.1-11.4-8.1h-1.9l1.8,9.9h1.8l0.7-2.2c0,0,4.5,2.7,9.3,2.7c6.8,0,11.3-4.4,11.3-9.1
		C722.1,81.6,714.6,80.5,710.2,79.6 M683.9,39c0,0-5.8,0.2-9.8,1.9c-3,1.3-4.6,3.6-4.5,6.3c0.1,1.6,1.9,4.4,6.1,4.2
		c4.2-0.3,8.2-3.9,8.2-3.9V39z M684,36.9l0-5.8c0-4.4-4.7-4.5-6.8-4.5c-1.6,0-4.7,0.1-6.2,2c-0.8,1-0.5,2.8-0.5,3.7
		c0.1,1.8-1.1,3.1-2.8,3.1c-1.7,0-3.1-1.4-3.1-3.1c0-3.5,3.2-5.5,3.2-5.5c2.4-1.7,6.6-2.5,10.1-2.5c3.6,0,6.7,0.7,9.4,2.8
		c1.4,1,2.5,2.8,2.5,6.5v17.1l5.8,1.6L696,54h-8.6l-3.5-3.8c0,0-5,4.2-11.2,4.2c-6.3,0-9.1-3.4-9.1-6.5c0,0-1-6.4,8.2-9.2
		c1.7-0.5,3.3-0.8,4.7-1.1C681.5,36.8,684,36.9,684,36.9 M727.9,63.5c0,1.9,1.5,3.4,3.4,3.4c1.9,0,3.4-1.5,3.4-3.4
		c0-1.9-1.5-3.4-3.4-3.4C729.4,60.2,727.9,61.7,727.9,63.5 M733.8,69.7l-10,1V73h4.7v20.6l-4.7,1.5v1.7h14.7V95l-4.6-1.5V69.7z
		 M608.1,60.2c-1.9,0-3.4,1.5-3.4,3.4c0,1.9,1.5,3.4,3.4,3.4c1.9,0,3.4-1.5,3.4-3.4C611.5,61.7,610,60.2,608.1,60.2 M610.4,69.7
		l-10,1V73h4.7v20.6l-4.8,1.5l0,1.7H615V95l-4.6-1.5V69.7z M694,69.4L694,69.4C694,69.3,693.9,69.3,694,69.4c-0.1,0-0.1,0-0.2,0
		c-5.6-1.2-10,3.4-11,4.5v-4.1h-2.2l-8.1,2.2v1.6h4.8v20.3l-4.7,1.3v1.6h15.1v-1.6l-5-1.3V76.3c0.3-0.3,2.9-3,5.1-3
		c2.5,0,2.6,1.6,5,1.8c0,0,0,0,0,0h0c0.1,0,0.2,0,0.3,0c1.6,0,2.9-1.3,2.9-3C696.2,70.8,695.3,69.7,694,69.4 M796,24.2L796,24.2
		C795.9,24.2,795.9,24.2,796,24.2c-0.1,0-0.2,0-0.2,0c-6.1-1.4-10.9,3.7-11.9,4.9v-4.4h-2.4l-8.8,2.4v1.8h5.3v22.1l-5.1,1.4V54h16.5
		v-1.8l-5.4-1.4v-19c0.4-0.4,3.1-3.3,5.5-3.3c2.7,0,2.8,1.7,5.5,2c0,0,0,0,0.1,0c0,0,0,0,0,0v0c0.1,0,0.2,0,0.3,0
		c1.8,0,3.2-1.4,3.2-3.2C798.4,25.8,797.3,24.6,796,24.2 M651,78.3h13.6c-0.2-4.2-2.9-7-6.7-7C654.9,71.3,651,73.1,651,78.3
		 M650.8,80.7c0,0-2.1,14.1,9.1,14.1c0,0,5.8,0.2,8.6-5.1l1.7,0.8c-1.4,4-6.1,6.7-11.1,6.7c-7.7,0-14.1-6.3-14.1-14
		c0-4.7,1.9-9,5.4-11.6c2.3-1.7,5-2.4,8-2.4c6.7,0,11.7,4.6,12.1,11.4H650.8z M750.5,34h14.7c-0.2-4.6-3.1-7.6-7.3-7.6
		C754.7,26.3,750.5,28.3,750.5,34 M744,39.3c0-5.1,2-9.8,5.8-12.5c2.5-1.8,5.4-2.6,8.7-2.6c7.3,0,12.7,4.9,13.1,12.4h-21.3
		c0,0-2.2,15.3,9.8,15.3c0,0,6.3,0.3,9.3-5.5l1.9,0.9c-1.5,4.3-6.6,7.3-12,7.3C751,54.5,744,47.7,744,39.3 M728.3,44.5
		c0,1.4,0,2.8,0,3.7c0,3.9,3.8,6.2,8.2,6.2c5.1,0,7.4-2,8.9-3.5c-0.4-0.5-0.8-1.1-1.2-1.7c-1.7,1.4-3.2,2.7-5.3,2.7
		c-2.5,0-4.2-2-4.6-4c-0.1-0.9-0.1-2.5-0.1-3.9l0-17.5h8.7v-2h-8.7V13.4h-2.8c0,0,0.1,5-2.3,8.5c-1.9,2.7-5.6,2.8-5.6,2.8v1.9h4.8
		V44.5z M751.6,95c-2.3,0-3.9-1.8-4.2-3.7c-0.1-0.8-0.1-2.3-0.1-3.6l0-16.3h8v-1.8h-8V59.3h-2.5c0,0,0.1,4.6-2.2,7.9
		c-1.7,2.5-5.2,2.6-5.2,2.6v1.7h4.4v16.6c0,1.3,0,2.6,0,3.4c0,3.6,3.5,5.8,7.5,5.8c5.2,0,7.2-2.2,8.6-3.7l-1.4-1.2
		C755,93.7,753.6,95,751.6,95 M710.7,35.5c-4.5-0.9-8.1-2.1-8.1-5.1c0-3.6,4.4-4,6.2-3.9c8.3,0.3,10.6,7.3,10.6,7.3h1.9l-1.9-9.2
		h-1.7l-0.6,2c-1.4-1-4.5-2.7-8.2-2.7c-7.3,0-11.6,4.3-11.6,9c0,4.7,6,6.6,10.6,7.9c4.4,1.3,10.3,1.5,10.3,5.9
		c0,5.3-7.2,5.2-7.2,5.2c-9.8,0-12.4-8.8-12.4-8.8h-2.1l1.9,10.8h2l0.7-2.4c0,0,4.9,2.9,10.1,2.9c7.3,0,12.3-4.8,12.3-9.9
		C723.5,37.7,715.4,36.4,710.7,35.5 M593.7,93.5V76.4c0-1.9-0.7-3.7-2.1-4.9c-1.6-1.3-3.5-2-5.5-2.2c-3.6-0.4-7.1,0.8-10,2.8
		c-0.9,0.6-1.7,1.1-2.5,1.7v-4h-2l-8.2,2.2v1.6h4.8v20l-4.6,1.5v1.7h14.7v-1.7l-4.7-1.5V76.5v0c1.3-1,2.7-1.9,4.1-2.7
		c1.8-1,4.2-2.1,6.3-1.8c1.1,0.2,2.3,0.9,2.9,1.8c1,1.3,1.3,3.1,1.3,4.7l0,15v0.1l-4.6,1.4v1.7h14.8V95L593.7,93.5z M588.2,93.5v0.1
		V93.5z M622,50.4v0.1V50.4z M600.3,50.5l-5,1.6V54h16v-1.8l-5.1-1.6V32v0c1.4-1.1,2.9-2.1,4.5-2.9c2-1,4.5-2.3,6.8-1.9
		c1.2,0.2,2.5,1,3.2,1.9c1.1,1.4,1.4,3.4,1.4,5.1l0,16.3c0-0.1,0,0.1,0,0.1l-5,1.6V54h16.1l0-1.8l-5-1.6V31.9c0-2.1-0.7-4-2.3-5.4
		c-1.7-1.4-3.8-2.2-6-2.4c-3.9-0.4-7.7,0.9-10.9,3c-0.9,0.6-1.8,1.2-2.7,1.9v-4.4h-2.1L595,27v1.8h5.3V50.5z M560.3,41l-1.5-0.6
		l-0.3-0.1c-4,7.1-12.1,11.3-17.4,11.3c0,0-5.6,0.3-5.6-4.7h0V15.6l5.3-1.5l0.1-1.4h-16.8v1.6l5,1.3v35l-5.1,1.4v2h31.3L560.3,41z
		 M777.4,71.3l4.8,1.3l-7.1,19l-7.7-19.2l3.9-1.1v-1.6H758v1.7l3.7,1l10.6,26.2c-0.7,1.3-1.4,2.6-2,3.9c-0.8,1.6-2.5,4.1-4.5,4.2
		c-1.8,0.2-2.3-2-3.7-2.8c-2.6-1.4-4.9,2-3.2,4.2c0.8,1.1,2.3,1.7,3.6,1.8c1.4,0.1,3-0.2,4.3-0.8c0.7-0.3,1.5-0.8,2.1-1.3
		c1.2-1.1,2.1-2.5,2.9-3.9c1.3-2.4,2.5-4.8,3.5-7.3c0.9-2.1,1.8-4.3,2.7-6.4c1.1-2.6,2.2-5.2,3.3-7.8c1-2.2,1.9-4.5,2.8-6.7
		c0.5-1.1,0.9-2.2,1.4-3.2c0,0,0-0.1,0-0.1l3.9-1v-1.7h-12V71.3z M559.9,61.7L559.9,61.7C559.9,61.7,559.9,61.6,559.9,61.7l5-1.4
		v-1.9h-13.5v1.7l5.4,1.4v24.8c0,0,0.4,8.3-10.6,8.3c-11,0-11-7.2-11-8.3V61.6l5.5-1.5v-1.7h-16.4v1.7l5.3,1.4V86
		c0,0-0.9,11.6,15.6,11.6c15.7,0,14.7-10.9,14.7-10.9V61.7z M645.4,69.7h-11.7v1.5l4.4,1.2l-7,19.4l-7.2-19.5l4.1-1.1v-1.7h-13.5
		v1.6l3.5,1l9.9,24.5h3.2l10.4-24.4l3.9-1V69.7z M633.3,39.3c0-4.8,1.4-9.3,4.9-12.1c2.6-2.1,6.3-3.3,9.9-3.3c3.5,0,6.6,1.1,9,2.8
		c0,0,3.2,2,3.2,5.5c0,1.7-1.4,3.1-3.1,3.1c-1.7,0-2.9-1.3-2.8-3.1c0-0.8,0.2-2.3-0.4-3.4c-1.4-2.9-5.4-2.7-5.4-2.7
		c-5.9,0-8.4,5.9-8.4,13.1c0,9.6,5.3,13.1,9.8,13.1c0,0,5.1,0.1,9.5-5.6l1.8,1.2c-2.7,4.2-7.4,6.9-12.8,6.9
		C640.2,54.7,633.3,47.8,633.3,39.3"/>
	<path class="st2" d="M890,89.9c-2.2,0.6-4.9,1.1-8.8,1.1c-3.4,0-5.9-0.3-8-0.9c-1.6-0.4-2.9-0.9-4.2-1.4c-2-0.8-3.9-1.7-6.3-2.3
		c-2.4-0.7-5.4-1.2-9.4-1.1c-3.6,0-6.3,0.4-8.6,0.9c-1.7,0.4-3.2,1-4.5,1.5c-2,0.8-3.8,1.6-6.1,2.3c-2.2,0.6-4.9,1.1-8.8,1.1
		c-3.4,0-5.9-0.3-8-0.9c-1.5-0.4-2.7-0.8-4-1.3c0.5,1,0.9,2.1,1.5,3.1c0.4,0.1,0.7,0.2,1.1,0.3c2.4,0.7,5.4,1.2,9.4,1.1
		c3.6,0,6.3-0.4,8.6-0.9c1.7-0.4,3.2-0.9,4.5-1.5c2-0.8,3.8-1.6,6.1-2.3c2.2-0.6,4.9-1.1,8.8-1.1c3.4,0,5.9,0.3,8,0.9
		c1.6,0.4,2.9,0.9,4.2,1.4c2,0.8,3.9,1.7,6.3,2.3c2.4,0.7,5.4,1.2,9.4,1.1c3.6,0,6.3-0.4,8.6-0.9c0.7-0.2,1.3-0.3,1.9-0.5
		c0.5-1,1-2.1,1.5-3.1C892.2,89.2,891.2,89.6,890,89.9"/>
	<path class="st2" d="M881.2,86.1c-3.4,0-5.9-0.3-8-0.9c-1.6-0.4-2.9-0.9-4.2-1.4c-2-0.8-3.9-1.7-6.3-2.3c-2.4-0.7-5.4-1.2-9.4-1.1
		c-3.6,0-6.3,0.4-8.6,0.9c-1.7,0.4-3.2,0.9-4.5,1.5c-2,0.8-3.8,1.6-6.1,2.3c-2.2,0.6-4.9,1.1-8.8,1.1c-3.4,0-5.9-0.3-8-0.9
		c-1.6-0.4-2.9-0.9-4.2-1.4c-0.7-0.3-1.4-0.6-2.1-0.8c0.4,1,0.8,2.1,1.2,3.1c1.1,0.5,2.3,0.9,3.7,1.3c2.4,0.7,5.4,1.2,9.4,1.2
		c3.6,0,6.3-0.4,8.6-0.9c1.7-0.4,3.2-0.9,4.5-1.5c2-0.8,3.8-1.6,6.1-2.3c2.2-0.6,4.9-1.1,8.8-1.1c3.4,0,5.9,0.3,8,0.9
		c1.6,0.4,2.9,0.9,4.2,1.4c2,0.8,3.9,1.7,6.3,2.3c2.4,0.7,5.4,1.2,9.4,1.2c3.6,0,6.3-0.4,8.6-0.9c1.7-0.4,3.2-0.9,4.5-1.5
		c0.4-1,0.8-2.1,1.2-3.1c-1.8,0.7-3.5,1.5-5.5,2C887.8,85.6,885.1,86.1,881.2,86.1"/>
	<path class="st2" d="M810.3,80.6c1.7,0.7,3.5,1.5,5.7,2.1c2.4,0.7,5.4,1.2,9.4,1.2c3.6,0,6.3-0.4,8.6-0.9c1.7-0.4,3.2-0.9,4.5-1.5
		c2-0.8,3.8-1.6,6.1-2.3c2.2-0.6,4.9-1.1,8.8-1.1c3.4,0,5.9,0.3,8,0.9c1.6,0.4,2.9,0.9,4.2,1.4c2,0.8,3.9,1.7,6.3,2.3
		c2.4,0.7,5.4,1.2,9.4,1.2c3.6,0,6.3-0.4,8.6-0.9c1.7-0.4,3.2-0.9,4.5-1.5c0.7-0.3,1.3-0.5,2-0.8c0.3-1,0.6-2,0.9-3
		c-0.4,0.1-0.7,0.3-1.1,0.4c-2,0.8-3.8,1.6-6.1,2.3c-2.2,0.6-4.9,1.1-8.8,1.1c-3.4,0-5.9-0.3-8-0.9c-1.6-0.4-2.9-0.9-4.2-1.4
		c-2-0.8-3.9-1.7-6.3-2.3c-2.4-0.7-5.4-1.1-9.4-1.1c-3.6,0-6.3,0.4-8.6,0.9c-1.7,0.4-3.2,0.9-4.5,1.5c-2,0.8-3.8,1.6-6.1,2.3
		c-2.2,0.6-4.9,1.1-8.8,1.1c-3.4,0-5.9-0.3-8-0.9c-1.6-0.4-2.9-0.9-4.2-1.4c-1.2-0.5-2.4-1-3.8-1.5
		C809.7,78.7,809.9,79.6,810.3,80.6"/>
	<rect x="806.6" y="49.4" class="st2" width="93.4" height="1.2"/>
	<rect x="495.7" class="st4" width="1.3" height="109.4"/>
	<path class="st4" d="M51.9,77.3c-2.3,1.4-4.1,2.9-5.3,4.4c-1.2,1.5-1.8,3.4-1.8,5.7c0,1.1,0.2,2,0.6,3c0.4,0.9,0.9,1.7,1.6,2.4
		c0.7,0.7,1.6,1.2,2.6,1.6c1,0.4,2.2,0.6,3.5,0.6c1.1,0,2.2-0.1,3.1-0.4c1-0.3,1.8-0.7,2.6-1.2c0.8-0.5,1.5-1.1,2.2-1.7
		c0.7-0.7,1.3-1.3,1.9-2.1L51.9,77.3z M64.8,91.4c-0.7,0.8-1.5,1.6-2.3,2.3c-0.8,0.7-1.7,1.4-2.6,1.9c-1,0.6-2,1-3.1,1.4
		c-1.1,0.3-2.4,0.5-3.7,0.5c-1.7,0-3.3-0.3-4.7-0.8c-1.4-0.5-2.5-1.2-3.5-2.1c-1-0.9-1.7-2-2.2-3.2c-0.5-1.2-0.8-2.5-0.8-3.9
		c0-2.7,0.8-5,2.3-6.9c1.5-1.9,3.5-3.6,6-5.2l-1.6-2c-0.8-1-1.5-2.1-2.1-3.4c-0.5-1.2-0.8-2.6-0.8-4c0-1,0.2-1.9,0.6-2.9
		c0.4-1,1-1.8,1.7-2.6c0.7-0.8,1.6-1.4,2.7-1.8c1.1-0.5,2.3-0.7,3.8-0.7c2.3,0,4.1,0.5,5.5,1.4c1.4,1,2.5,2.5,3.5,4.6l-2,1.2
		c-1-2-2-3.3-3.1-3.9c-1.1-0.6-2.3-1-3.8-1c-1,0-1.9,0.2-2.7,0.5c-0.8,0.3-1.4,0.7-1.9,1.2c-0.5,0.5-0.9,1.1-1.2,1.8
		c-0.3,0.7-0.4,1.4-0.4,2c0,1.3,0.3,2.5,1,3.7c0.6,1.2,1.6,2.6,2.9,4.1l12.3,13.6l5-6.8l2,1.5l-5.4,7.2l6.6,7.3h-3.4L64.8,91.4z"/>
	<path class="st4" d="M116.2,90.4c-0.2,0.4-0.6,1-1.3,1.7c-0.6,0.8-1.5,1.6-2.6,2.4c-1.1,0.8-2.5,1.5-4.1,2.1
		c-1.6,0.6-3.5,0.9-5.7,0.9c-2.7,0-5.2-0.5-7.4-1.5c-2.2-1-4.2-2.4-5.8-4.1c-1.6-1.8-2.8-3.9-3.7-6.3c-0.9-2.4-1.3-5-1.3-7.8
		c0-2.7,0.4-5.3,1.3-7.7c0.9-2.4,2.1-4.5,3.7-6.3c1.6-1.8,3.5-3.2,5.8-4.2c2.2-1,4.7-1.5,7.4-1.5c2.2,0,4.1,0.3,5.7,0.9
		c1.6,0.6,3,1.3,4.1,2.1c1.1,0.8,2,1.6,2.6,2.4c0.6,0.8,1,1.4,1.3,1.7l-2,1.4c-0.2-0.3-0.6-0.8-1.1-1.4c-0.5-0.7-1.2-1.3-2.1-2
		c-0.9-0.7-2.1-1.3-3.4-1.8c-1.4-0.5-3-0.8-4.9-0.8c-2.4,0-4.6,0.4-6.5,1.3c-1.9,0.9-3.5,2.1-4.8,3.6c-1.3,1.5-2.3,3.4-3,5.4
		c-0.7,2.1-1,4.3-1,6.7s0.4,4.6,1.1,6.7c0.7,2.1,1.7,3.9,3,5.5c1.3,1.6,2.9,2.8,4.8,3.7c1.9,0.9,4.1,1.3,6.5,1.3
		c1.8,0,3.3-0.3,4.6-0.8c1.3-0.5,2.5-1.1,3.4-1.8c0.9-0.7,1.7-1.3,2.2-2c0.5-0.7,0.9-1.1,1.2-1.4L116.2,90.4z"/>
	<path class="st4" d="M133.4,95c1.5,0,2.9-0.3,4.2-0.9c1.3-0.6,2.5-1.4,3.4-2.4c1-1,1.7-2.2,2.3-3.6c0.5-1.4,0.8-2.8,0.8-4.4
		c0-1.5-0.3-2.9-0.8-4.3c-0.6-1.4-1.3-2.6-2.3-3.6c-1-1.1-2.1-1.9-3.4-2.5c-1.3-0.6-2.7-0.9-4.2-0.9c-1.5,0-3,0.3-4.3,0.9
		c-1.3,0.6-2.4,1.4-3.4,2.4c-1,1-1.7,2.2-2.3,3.6c-0.5,1.4-0.8,2.8-0.8,4.4c0,1.5,0.3,3,0.8,4.3c0.6,1.4,1.3,2.6,2.3,3.6
		c1,1.1,2.1,1.9,3.4,2.5C130.5,94.7,131.9,95,133.4,95 M133.4,97.3c-1.8,0-3.6-0.4-5.2-1.1c-1.6-0.7-3-1.7-4.3-2.9
		c-1.2-1.2-2.2-2.7-2.9-4.3c-0.7-1.7-1-3.4-1-5.3c0-1.9,0.3-3.6,1-5.3c0.7-1.7,1.7-3.1,2.9-4.3c1.2-1.2,2.6-2.2,4.3-2.9
		c1.6-0.7,3.3-1.1,5.2-1.1c1.8,0,3.6,0.4,5.2,1.1c1.6,0.7,3,1.7,4.3,2.9c1.2,1.2,2.2,2.7,2.9,4.3c0.7,1.7,1,3.4,1,5.3
		c0,1.9-0.3,3.6-1,5.3c-0.7,1.7-1.7,3.1-2.9,4.3c-1.2,1.2-2.6,2.2-4.3,2.9C136.9,97,135.2,97.3,133.4,97.3"/>
	<path class="st4" d="M151.6,76.2v-1.8V73c0-0.4,0-0.8,0-1.1c0-0.4,0-0.7-0.1-1.2h2.4c0,0.4,0.1,0.8,0.1,1.1c0,0.3,0,0.7,0.1,1.1
		c0,0.4,0,0.8,0,1.4v1.8c0.3-0.6,0.7-1.2,1.2-1.9c0.5-0.7,1.2-1.4,2-2c0.8-0.6,1.7-1.1,2.8-1.5c1.1-0.4,2.3-0.6,3.8-0.6
		c2.5,0,4.4,0.5,5.7,1.6c1.3,1.1,2.2,2.6,2.8,4.5v-0.1c0.3-0.5,0.7-1.1,1.3-1.8c0.6-0.7,1.3-1.4,2.2-2c0.9-0.6,1.9-1.2,3-1.6
		c1.1-0.4,2.4-0.6,3.8-0.6c1.7,0,3.2,0.3,4.4,0.8c1.2,0.5,2.1,1.3,2.8,2.3c0.7,1,1.2,2.2,1.5,3.6c0.3,1.4,0.4,3,0.4,4.7v15.2h-2.5
		V82.3c0-1.9-0.1-3.5-0.5-4.8c-0.3-1.3-0.8-2.3-1.4-3c-0.6-0.8-1.3-1.3-2.2-1.6c-0.8-0.3-1.8-0.5-3-0.5c-1.3,0-2.5,0.3-3.6,0.8
		c-1.1,0.5-2.1,1.2-3,2.1c-0.8,0.9-1.5,1.9-2,3c-0.5,1.1-0.7,2.3-0.7,3.5v14.9h-2.5V82.3c0-1.9-0.1-3.5-0.5-4.8
		c-0.3-1.3-0.7-2.3-1.3-3c-0.6-0.8-1.3-1.3-2.1-1.6c-0.8-0.3-1.8-0.5-3-0.5c-1.5,0-2.9,0.3-4.1,1c-1.2,0.7-2.1,1.5-2.9,2.6
		c-0.8,1.1-1.4,2.2-1.8,3.5c-0.4,1.3-0.6,2.5-0.6,3.8v13.4h-2.5V76.2z"/>
	<path class="st4" d="M197.7,76.2v-1.8V73c0-0.4,0-0.8,0-1.1c0-0.4,0-0.7-0.1-1.2h2.4c0,0.4,0.1,0.8,0.1,1.1c0,0.3,0,0.7,0.1,1.1
		c0,0.4,0,0.8,0,1.4v1.8c0.3-0.6,0.7-1.2,1.2-1.9c0.5-0.7,1.2-1.4,2-2c0.8-0.6,1.7-1.1,2.8-1.5c1.1-0.4,2.3-0.6,3.8-0.6
		c2.5,0,4.4,0.5,5.7,1.6c1.3,1.1,2.2,2.6,2.8,4.5v-0.1c0.3-0.5,0.7-1.1,1.3-1.8c0.6-0.7,1.3-1.4,2.2-2c0.9-0.6,1.9-1.2,3-1.6
		c1.1-0.4,2.4-0.6,3.8-0.6c1.7,0,3.2,0.3,4.4,0.8c1.2,0.5,2.1,1.3,2.8,2.3c0.7,1,1.2,2.2,1.5,3.6c0.3,1.4,0.5,3,0.5,4.7v15.2h-2.5
		V82.3c0-1.9-0.1-3.5-0.5-4.8c-0.3-1.3-0.8-2.3-1.4-3c-0.6-0.8-1.3-1.3-2.2-1.6c-0.8-0.3-1.8-0.5-3-0.5c-1.3,0-2.5,0.3-3.6,0.8
		c-1.1,0.5-2.1,1.2-3,2.1c-0.8,0.9-1.5,1.9-2,3c-0.5,1.1-0.7,2.3-0.7,3.5v14.9h-2.5V82.3c0-1.9-0.2-3.5-0.5-4.8
		c-0.3-1.3-0.7-2.3-1.3-3c-0.6-0.8-1.3-1.3-2.1-1.6c-0.8-0.3-1.8-0.5-3-0.5c-1.5,0-2.9,0.3-4.1,1c-1.2,0.7-2.1,1.5-2.9,2.6
		c-0.8,1.1-1.4,2.2-1.8,3.5c-0.4,1.3-0.6,2.5-0.6,3.8v13.4h-2.5V76.2z"/>
	<path class="st4" d="M243.4,70.7h2.5v14.4c0,1.9,0.2,3.5,0.5,4.8c0.3,1.3,0.8,2.3,1.4,3c0.6,0.8,1.4,1.3,2.4,1.6
		c0.9,0.3,2,0.5,3.3,0.5c1.6,0,3-0.3,4.2-1c1.2-0.7,2.2-1.5,3-2.6c0.8-1.1,1.3-2.2,1.7-3.5c0.4-1.3,0.6-2.5,0.6-3.8V70.7h2.5v20.5
		v1.9v1.3c0,0.4,0,0.8,0,1.1c0,0.4,0,0.7,0.1,1.2h-2.4c0-0.4-0.1-0.8-0.1-1.1c0-0.3,0-0.7-0.1-1.1c0-0.4,0-0.8,0-1.3v-1.9
		c-0.3,0.6-0.7,1.2-1.2,1.9s-1.2,1.4-2,2c-0.8,0.6-1.7,1.1-2.8,1.6c-1.1,0.4-2.4,0.6-3.9,0.6c-1.8,0-3.4-0.3-4.6-0.8
		c-1.2-0.5-2.2-1.3-3-2.3c-0.8-1-1.3-2.2-1.6-3.6c-0.3-1.4-0.5-3-0.5-4.7V70.7z"/>
	<path class="st4" d="M271.8,76.2v-1.8V73c0-0.4,0-0.8,0-1.1c0-0.4,0-0.7-0.1-1.2h2.4c0,0.4,0.1,0.8,0.1,1.1c0,0.3,0,0.7,0.1,1.1
		c0,0.4,0,0.8,0,1.4v1.8c0.3-0.6,0.7-1.2,1.3-1.9c0.5-0.7,1.2-1.4,2-2c0.8-0.6,1.8-1.1,2.9-1.5c1.1-0.4,2.4-0.6,3.9-0.6
		c1.8,0,3.4,0.3,4.7,0.8c1.3,0.5,2.3,1.3,3.1,2.3c0.8,1,1.4,2.2,1.7,3.6c0.3,1.4,0.5,3,0.5,4.7v15.2h-2.5V82.3
		c0-1.9-0.2-3.5-0.5-4.8c-0.3-1.3-0.8-2.3-1.5-3c-0.7-0.8-1.5-1.3-2.4-1.6c-1-0.3-2.1-0.5-3.3-0.5c-1.7,0-3.1,0.3-4.3,1
		c-1.2,0.7-2.2,1.5-3,2.6c-0.8,1.1-1.4,2.2-1.8,3.5c-0.4,1.3-0.6,2.5-0.6,3.8v13.4h-2.5V76.2z"/>
	<path class="st4" d="M300.2,70.7h2.5v25.9h-2.5V70.7z M299.7,61.6h3.6v3.7h-3.6V61.6z"/>
	<path class="st4" d="M330.9,92.8c-1.1,1.3-2.5,2.4-4.3,3.2c-1.7,0.8-3.7,1.3-6,1.3c-1.9,0-3.6-0.3-5.2-1c-1.6-0.7-3-1.7-4.1-2.9
		c-1.2-1.2-2.1-2.7-2.7-4.3c-0.6-1.7-1-3.5-1-5.4c0-1.9,0.3-3.7,1-5.4c0.7-1.7,1.6-3.1,2.7-4.3c1.2-1.2,2.5-2.2,4.1-2.9
		c1.6-0.7,3.3-1,5.2-1c2.3,0,4.2,0.4,5.8,1.2c1.6,0.8,3,1.9,4.1,3.4l-1.9,1.5c-0.9-1.1-1.9-2-3.2-2.7c-1.3-0.7-2.9-1-4.8-1
		c-1.5,0-2.9,0.3-4.1,0.9c-1.3,0.6-2.3,1.4-3.3,2.4c-0.9,1-1.6,2.2-2.1,3.6c-0.5,1.4-0.8,2.8-0.8,4.4c0,1.5,0.3,3,0.8,4.4
		c0.5,1.4,1.2,2.6,2.2,3.6c0.9,1,2,1.8,3.3,2.4c1.3,0.6,2.6,0.9,4.1,0.9c1.9,0,3.5-0.3,5-1c1.4-0.7,2.6-1.6,3.5-2.7L330.9,92.8z"/>
	<path class="st4" d="M352.7,83.4c-0.8-0.2-1.8-0.3-3-0.5c-1.2-0.1-2.7-0.2-4.5-0.2c-1.9,0-3.4,0.2-4.6,0.7c-1.1,0.5-2,1.1-2.6,1.7
		c-0.6,0.7-1,1.4-1.1,2.3c-0.2,0.8-0.3,1.5-0.3,2.2c0,1.9,0.6,3.3,1.9,4.1c1.3,0.9,2.9,1.3,4.8,1.3c1.3,0,2.5-0.2,3.6-0.7
		c1.1-0.5,2.1-1.1,3-1.8c0.8-0.8,1.5-1.6,2-2.6c0.5-1,0.7-1.9,0.7-2.9V83.4z M352.9,96.7c0-0.3-0.1-0.7-0.1-1.1
		c0-0.4-0.1-0.8-0.1-1.4v-1.9c-0.7,1-1.4,1.8-2.2,2.5c-0.8,0.7-1.7,1.2-2.5,1.5c-0.9,0.4-1.7,0.6-2.6,0.8c-0.8,0.1-1.6,0.2-2.3,0.2
		c-1.1,0-2.2-0.1-3.3-0.3c-1.1-0.2-2.1-0.6-2.9-1.2c-0.9-0.6-1.6-1.4-2.1-2.4c-0.5-1-0.8-2.3-0.8-3.8c0-1.2,0.2-2.4,0.6-3.5
		c0.4-1.1,1.1-2.1,2-2.9c0.9-0.8,2.1-1.4,3.5-1.9c1.4-0.5,3.2-0.7,5.2-0.7c1.6,0,3,0.1,4.2,0.2c1.2,0.1,2.3,0.2,3.2,0.4v-1.5
		c0-1.4-0.2-2.6-0.5-3.6c-0.3-0.9-0.8-1.7-1.5-2.3c-0.7-0.6-1.5-1-2.5-1.2c-1-0.2-2.1-0.3-3.4-0.3c-2.1,0-3.8,0.3-5.1,0.9
		c-1.3,0.6-2.2,1.2-2.9,1.8l-1.4-1.7c0.7-0.7,1.9-1.4,3.5-2.1c1.6-0.8,3.5-1.1,5.8-1.1c3.3,0,5.9,0.7,7.7,2.1
		c1.8,1.4,2.7,3.8,2.7,7.1v11.9v2.1c0,0.7,0,1.2,0.1,1.7c0,0.6,0.1,1.1,0.1,1.6H352.9z"/>
	<path class="st4" d="M363.5,73.1h-5.2v-2.4h5.2v-8.6h2.5v8.6h8.6v2.4H366v15c0,1.5,0.1,2.8,0.3,3.7c0.2,0.9,0.6,1.6,1,2.1
		c0.4,0.5,0.9,0.8,1.5,0.9c0.6,0.2,1.2,0.2,1.9,0.2c0.9,0,1.7-0.2,2.4-0.5c0.7-0.3,1.4-0.9,2-1.7l1.6,1.5c-0.8,1-1.6,1.7-2.6,2.3
		c-1,0.5-2.2,0.8-3.7,0.8c-1,0-2-0.1-2.8-0.4c-0.9-0.2-1.6-0.7-2.2-1.4c-0.6-0.7-1.1-1.5-1.4-2.6c-0.3-1.1-0.5-2.5-0.5-4.3V73.1z"/>
	<path class="st4" d="M379.6,70.7h2.5v25.9h-2.5V70.7z M379.1,61.6h3.6v3.7h-3.6V61.6z"/>
	<path class="st4" d="M400.4,95c1.5,0,2.9-0.3,4.2-0.9c1.3-0.6,2.5-1.4,3.4-2.4c1-1,1.7-2.2,2.3-3.6c0.5-1.4,0.8-2.8,0.8-4.4
		c0-1.5-0.3-2.9-0.8-4.3c-0.6-1.4-1.3-2.6-2.3-3.6c-1-1.1-2.1-1.9-3.4-2.5c-1.3-0.6-2.7-0.9-4.2-0.9c-1.5,0-3,0.3-4.3,0.9
		c-1.3,0.6-2.4,1.4-3.4,2.4c-1,1-1.7,2.2-2.3,3.6c-0.5,1.4-0.8,2.8-0.8,4.4c0,1.5,0.3,3,0.8,4.3c0.6,1.4,1.3,2.6,2.3,3.6
		c1,1.1,2.1,1.9,3.4,2.5C397.6,94.7,399,95,400.4,95 M400.4,97.3c-1.8,0-3.6-0.4-5.2-1.1c-1.6-0.7-3-1.7-4.3-2.9
		c-1.2-1.2-2.2-2.7-2.9-4.3c-0.7-1.7-1-3.4-1-5.3c0-1.9,0.3-3.6,1-5.3c0.7-1.7,1.7-3.1,2.9-4.3c1.2-1.2,2.6-2.2,4.3-2.9
		c1.6-0.7,3.3-1.1,5.2-1.1c1.8,0,3.6,0.4,5.2,1.1c1.6,0.7,3,1.7,4.3,2.9c1.2,1.2,2.2,2.7,2.9,4.3c0.7,1.7,1,3.4,1,5.3
		c0,1.9-0.3,3.6-1,5.3c-0.7,1.7-1.7,3.1-2.9,4.3c-1.2,1.2-2.6,2.2-4.3,2.9C404,97,402.3,97.3,400.4,97.3"/>
	<path class="st4" d="M418.7,76.2v-1.8V73c0-0.4,0-0.8,0-1.1c0-0.4,0-0.7-0.1-1.2h2.4c0,0.4,0.1,0.8,0.1,1.1c0,0.3,0,0.7,0.1,1.1
		c0,0.4,0,0.8,0,1.4v1.8c0.3-0.6,0.7-1.2,1.3-1.9c0.5-0.7,1.2-1.4,2-2c0.8-0.6,1.8-1.1,2.9-1.5c1.1-0.4,2.4-0.6,3.9-0.6
		c1.8,0,3.4,0.3,4.7,0.8c1.3,0.5,2.3,1.3,3.1,2.3c0.8,1,1.4,2.2,1.7,3.6c0.3,1.4,0.5,3,0.5,4.7v15.2h-2.5V82.3
		c0-1.9-0.2-3.5-0.5-4.8c-0.3-1.3-0.8-2.3-1.5-3c-0.7-0.8-1.5-1.3-2.4-1.6c-1-0.3-2.1-0.5-3.3-0.5c-1.7,0-3.1,0.3-4.3,1
		c-1.2,0.7-2.2,1.5-3,2.6c-0.8,1.1-1.4,2.2-1.8,3.5c-0.4,1.3-0.6,2.5-0.6,3.8v13.4h-2.5V76.2z"/>
	<path class="st4" d="M447,91.6c1.1,1.1,2.3,1.9,3.7,2.5c1.4,0.6,3.1,0.9,5,0.9c1.1,0,2-0.1,3-0.3c0.9-0.2,1.8-0.5,2.5-0.9
		c0.7-0.4,1.3-0.9,1.7-1.5c0.4-0.6,0.6-1.3,0.6-2.1c0-0.9-0.2-1.7-0.6-2.3c-0.4-0.6-0.9-1.1-1.7-1.5c-0.7-0.4-1.7-0.7-2.8-1
		c-1.1-0.3-2.4-0.6-3.8-0.9c-1.2-0.3-2.3-0.6-3.3-0.9c-1-0.4-1.9-0.8-2.6-1.3c-0.7-0.5-1.3-1.2-1.7-2c-0.4-0.8-0.6-1.8-0.6-3
		c0-1.2,0.3-2.2,0.8-3.1c0.5-0.9,1.2-1.6,2.1-2.2c0.9-0.6,1.9-1,3-1.3c1.1-0.3,2.3-0.4,3.6-0.4c2,0,3.8,0.4,5.4,1.1
		c1.6,0.8,2.8,1.7,3.8,2.9l-1.7,1.6c-0.9-1-1.9-1.8-3.1-2.4c-1.2-0.6-2.6-0.9-4.3-0.9c-0.8,0-1.7,0.1-2.5,0.2
		c-0.8,0.1-1.6,0.4-2.3,0.7c-0.7,0.4-1.2,0.8-1.6,1.5c-0.4,0.6-0.6,1.4-0.6,2.5c0,0.8,0.2,1.5,0.7,2.1c0.5,0.6,1.1,1,1.8,1.4
		c0.8,0.4,1.6,0.7,2.6,0.9c1,0.2,2,0.5,2.9,0.7c1,0.2,2.1,0.5,3.2,0.8c1.1,0.3,2,0.8,2.9,1.3c0.9,0.5,1.6,1.2,2.1,2.1
		c0.5,0.8,0.8,1.9,0.8,3.2c0,1.3-0.3,2.4-0.9,3.4c-0.6,0.9-1.4,1.7-2.4,2.3c-1,0.6-2.1,1.1-3.3,1.4c-1.2,0.3-2.5,0.5-3.7,0.5
		c-2.4,0-4.5-0.4-6.2-1.1c-1.7-0.7-3.2-1.7-4.4-2.9L447,91.6z"/>
	<path class="st4" d="M2,47.1c1.3,1.5,2.8,2.8,4.6,3.8c1.8,1,4,1.5,6.5,1.5c1.5,0,2.8-0.2,4-0.5c1.2-0.3,2.3-0.8,3.2-1.5
		c0.9-0.7,1.6-1.5,2.1-2.5c0.5-1,0.7-2.2,0.7-3.5c0-1.4-0.3-2.6-0.8-3.6c-0.5-1-1.3-1.8-2.2-2.5c-0.9-0.7-1.9-1.2-3.1-1.6
		c-1.1-0.4-2.3-0.8-3.5-1.1c-1.4-0.4-2.9-0.8-4.3-1.3c-1.4-0.5-2.7-1.1-3.8-1.9c-1.1-0.8-2-1.7-2.7-2.9c-0.7-1.2-1-2.7-1-4.6
		c0-1.3,0.3-2.5,0.8-3.7c0.5-1.2,1.3-2.2,2.3-3c1-0.9,2.2-1.6,3.7-2.1c1.4-0.5,3.1-0.8,4.9-0.8c1.6,0,3,0.2,4.2,0.5
		c1.2,0.3,2.3,0.8,3.2,1.3c0.9,0.5,1.7,1.1,2.3,1.7c0.6,0.6,1.1,1.2,1.6,1.7l-1.9,1.6c-0.3-0.5-0.8-0.9-1.3-1.4
		c-0.5-0.5-1.2-1-1.9-1.4c-0.8-0.4-1.6-0.8-2.7-1.1c-1-0.3-2.2-0.4-3.6-0.4c-1.5,0-2.9,0.2-4,0.6c-1.1,0.4-2,1-2.7,1.6
		c-0.7,0.7-1.2,1.4-1.6,2.3c-0.3,0.8-0.5,1.7-0.5,2.6c0,1.4,0.3,2.5,0.9,3.4c0.6,0.9,1.4,1.6,2.5,2.2c1,0.6,2.1,1.1,3.4,1.4
		c1.3,0.4,2.5,0.7,3.8,1.1c1.3,0.3,2.6,0.8,3.9,1.3c1.3,0.5,2.5,1.2,3.5,2c1,0.8,1.9,1.9,2.5,3.2c0.7,1.3,1,2.9,1,4.7
		c0,1.6-0.3,3.1-1,4.4c-0.7,1.3-1.6,2.4-2.7,3.3c-1.1,0.9-2.5,1.6-4.1,2.1c-1.6,0.5-3.3,0.7-5.1,0.7c-1.6,0-3-0.2-4.4-0.5
		C7.3,54,6.1,53.6,5,53c-1.1-0.5-2.1-1.2-2.9-1.9C1.2,50.5,0.5,49.8,0,49L2,47.1z"/>
	<path class="st4" d="M53.3,50.1c-1.1,1.3-2.5,2.4-4.3,3.2c-1.7,0.8-3.7,1.3-6,1.3c-1.9,0-3.6-0.3-5.2-1c-1.6-0.7-3-1.7-4.1-2.9
		c-1.2-1.2-2.1-2.7-2.7-4.3c-0.6-1.7-1-3.5-1-5.4c0-1.9,0.3-3.7,1-5.4c0.7-1.7,1.6-3.1,2.7-4.3c1.2-1.2,2.5-2.2,4.1-2.9
		c1.6-0.7,3.3-1,5.2-1c2.3,0,4.2,0.4,5.8,1.2c1.6,0.8,3,1.9,4.1,3.4l-1.9,1.5c-0.9-1.1-1.9-2-3.2-2.7c-1.3-0.7-2.9-1-4.8-1
		c-1.5,0-2.9,0.3-4.1,0.9c-1.3,0.6-2.3,1.4-3.3,2.4c-0.9,1-1.6,2.2-2.1,3.6C33,38,32.7,39.5,32.7,41c0,1.5,0.3,3,0.8,4.4
		c0.5,1.4,1.2,2.6,2.2,3.6c0.9,1,2,1.8,3.3,2.4c1.3,0.6,2.6,0.9,4.1,0.9c1.9,0,3.5-0.3,5-1c1.4-0.7,2.6-1.6,3.5-2.7L53.3,50.1z"/>
	<path class="st4" d="M57.5,16.4h2.5v16.9c0.3-0.6,0.7-1.2,1.3-1.9c0.5-0.7,1.2-1.3,2.1-1.9c0.8-0.6,1.8-1.1,2.9-1.5
		c1.1-0.4,2.3-0.6,3.8-0.6c1.8,0,3.4,0.3,4.7,0.8c1.3,0.5,2.3,1.3,3.1,2.3c0.8,1,1.4,2.2,1.7,3.6c0.3,1.4,0.5,3,0.5,4.7V54h-2.5
		V39.6c0-1.9-0.2-3.5-0.5-4.8c-0.3-1.3-0.8-2.3-1.5-3C74.8,31,74,30.5,73,30.2c-1-0.3-2.1-0.5-3.3-0.5c-1.7,0-3.1,0.3-4.3,1
		c-1.2,0.7-2.2,1.5-3,2.6c-0.8,1.1-1.4,2.2-1.8,3.5c-0.4,1.3-0.6,2.5-0.6,3.8V54h-2.5V16.4z"/>
	<path class="st4" d="M97.9,52.3c1.5,0,2.9-0.3,4.2-0.9c1.3-0.6,2.5-1.4,3.4-2.4c1-1,1.7-2.2,2.3-3.6c0.5-1.4,0.8-2.8,0.8-4.4
		c0-1.5-0.3-2.9-0.8-4.3c-0.6-1.4-1.3-2.6-2.3-3.6c-1-1.1-2.1-1.9-3.4-2.5c-1.3-0.6-2.7-0.9-4.2-0.9c-1.5,0-3,0.3-4.3,0.9
		c-1.3,0.6-2.4,1.4-3.4,2.4c-1,1-1.7,2.2-2.3,3.6c-0.5,1.4-0.8,2.8-0.8,4.4c0,1.5,0.3,3,0.8,4.3c0.6,1.4,1.3,2.6,2.3,3.6
		c1,1.1,2.1,1.9,3.4,2.5C95.1,52,96.4,52.3,97.9,52.3 M97.9,54.7c-1.8,0-3.6-0.4-5.2-1.1c-1.6-0.7-3-1.7-4.3-2.9
		c-1.2-1.2-2.2-2.7-2.9-4.3c-0.7-1.7-1-3.4-1-5.3s0.3-3.6,1-5.3c0.7-1.7,1.7-3.1,2.9-4.3c1.2-1.2,2.6-2.2,4.3-2.9
		c1.6-0.7,3.3-1.1,5.2-1.1c1.8,0,3.6,0.4,5.2,1.1c1.6,0.7,3,1.7,4.3,2.9c1.2,1.2,2.2,2.7,2.9,4.3c0.7,1.7,1,3.4,1,5.3
		s-0.3,3.6-1,5.3c-0.7,1.7-1.7,3.1-2.9,4.3c-1.2,1.2-2.6,2.2-4.3,2.9C101.5,54.3,99.7,54.7,97.9,54.7"/>
	<path class="st4" d="M128.1,52.3c1.5,0,2.9-0.3,4.2-0.9c1.3-0.6,2.5-1.4,3.4-2.4c1-1,1.7-2.2,2.3-3.6c0.5-1.4,0.8-2.8,0.8-4.4
		c0-1.5-0.3-2.9-0.8-4.3c-0.6-1.4-1.3-2.6-2.3-3.6c-1-1.1-2.1-1.9-3.4-2.5c-1.3-0.6-2.7-0.9-4.2-0.9c-1.5,0-3,0.3-4.3,0.9
		c-1.3,0.6-2.4,1.4-3.4,2.4c-1,1-1.7,2.2-2.3,3.6c-0.5,1.4-0.8,2.8-0.8,4.4c0,1.5,0.3,3,0.8,4.3c0.6,1.4,1.3,2.6,2.3,3.6
		c1,1.1,2.1,1.9,3.4,2.5C125.3,52,126.7,52.3,128.1,52.3 M128.1,54.7c-1.8,0-3.6-0.4-5.2-1.1c-1.6-0.7-3-1.7-4.3-2.9
		c-1.2-1.2-2.2-2.7-2.9-4.3c-0.7-1.7-1-3.4-1-5.3s0.3-3.6,1-5.3c0.7-1.7,1.7-3.1,2.9-4.3c1.2-1.2,2.6-2.2,4.3-2.9
		c1.6-0.7,3.3-1.1,5.2-1.1c1.8,0,3.6,0.4,5.2,1.1c1.6,0.7,3,1.7,4.3,2.9c1.2,1.2,2.2,2.7,2.9,4.3c0.7,1.7,1,3.4,1,5.3
		s-0.3,3.6-1,5.3c-0.7,1.7-1.7,3.1-2.9,4.3c-1.2,1.2-2.6,2.2-4.3,2.9C131.7,54.3,130,54.7,128.1,54.7"/>
	<rect x="146.3" y="16.4" class="st4" width="2.5" height="37.6"/>
	<path class="st4" d="M175.5,52.3c1.5,0,2.9-0.3,4.2-0.9c1.3-0.6,2.5-1.4,3.4-2.4c1-1,1.7-2.2,2.3-3.6c0.5-1.4,0.8-2.8,0.8-4.4
		c0-1.5-0.3-2.9-0.8-4.3c-0.6-1.4-1.3-2.6-2.3-3.6c-1-1.1-2.1-1.9-3.4-2.5c-1.3-0.6-2.7-0.9-4.2-0.9c-1.5,0-3,0.3-4.3,0.9
		c-1.3,0.6-2.4,1.4-3.4,2.4c-1,1-1.7,2.2-2.3,3.6c-0.5,1.4-0.8,2.8-0.8,4.4c0,1.5,0.3,3,0.8,4.3c0.6,1.4,1.3,2.6,2.3,3.6
		c1,1.1,2.1,1.9,3.4,2.5C172.6,52,174,52.3,175.5,52.3 M175.5,54.7c-1.8,0-3.6-0.4-5.2-1.1c-1.6-0.7-3-1.7-4.3-2.9
		c-1.2-1.2-2.2-2.7-2.9-4.3c-0.7-1.7-1-3.4-1-5.3s0.3-3.6,1-5.3c0.7-1.7,1.7-3.1,2.9-4.3c1.2-1.2,2.6-2.2,4.3-2.9
		c1.6-0.7,3.3-1.1,5.2-1.1c1.8,0,3.6,0.4,5.2,1.1c1.6,0.7,3,1.7,4.3,2.9c1.2,1.2,2.2,2.7,2.9,4.3c0.7,1.7,1,3.4,1,5.3
		s-0.3,3.6-1,5.3c-0.7,1.7-1.7,3.1-2.9,4.3c-1.2,1.2-2.6,2.2-4.3,2.9C179,54.3,177.3,54.7,175.5,54.7"/>
	<path class="st4" d="M195.8,30.4h-5.2v-2.4h5.2v-3c0-3.1,0.7-5.4,2.1-7.1c1.4-1.7,3.4-2.5,5.9-2.5c1.7,0,3.1,0.3,4.2,0.8
		c1.1,0.6,2,1.3,2.8,2.1l-1.6,1.6c-0.8-0.8-1.6-1.4-2.4-1.7c-0.8-0.4-1.7-0.5-2.8-0.5c-0.8,0-1.6,0.1-2.3,0.3
		c-0.7,0.2-1.3,0.6-1.8,1.3c-0.5,0.6-0.9,1.5-1.2,2.5c-0.3,1.1-0.4,2.5-0.4,4.1v2h8.6v2.4h-8.6V54h-2.5V30.4z"/>
	<path class="st4" d="M249.3,47.7c-0.2,0.4-0.6,1-1.3,1.7c-0.6,0.8-1.5,1.6-2.6,2.4c-1.1,0.8-2.5,1.5-4.1,2.1
		c-1.6,0.6-3.5,0.9-5.7,0.9c-2.7,0-5.2-0.5-7.4-1.5c-2.2-1-4.2-2.4-5.8-4.1c-1.6-1.8-2.8-3.9-3.7-6.3c-0.9-2.4-1.3-5-1.3-7.8
		c0-2.7,0.4-5.3,1.3-7.7c0.9-2.4,2.1-4.5,3.7-6.3c1.6-1.8,3.5-3.2,5.8-4.2c2.2-1,4.7-1.5,7.4-1.5c2.2,0,4.1,0.3,5.7,0.9
		c1.6,0.6,3,1.3,4.1,2.1c1.1,0.8,2,1.6,2.6,2.4c0.6,0.8,1,1.4,1.3,1.7l-2,1.4c-0.2-0.3-0.6-0.8-1.1-1.4c-0.5-0.7-1.2-1.3-2.1-2
		c-0.9-0.7-2.1-1.3-3.4-1.8c-1.4-0.5-3-0.8-4.9-0.8c-2.4,0-4.6,0.4-6.5,1.3c-1.9,0.9-3.5,2.1-4.8,3.6c-1.3,1.5-2.3,3.4-3,5.4
		c-0.7,2.1-1,4.3-1,6.7s0.4,4.7,1.1,6.7c0.7,2.1,1.7,3.9,3,5.5c1.3,1.6,2.9,2.8,4.8,3.7c1.9,0.9,4.1,1.3,6.5,1.3
		c1.8,0,3.3-0.3,4.7-0.8c1.3-0.5,2.5-1.1,3.4-1.8c0.9-0.7,1.7-1.3,2.2-2c0.5-0.7,0.9-1.1,1.2-1.4L249.3,47.7z"/>
	<path class="st4" d="M266.4,52.3c1.5,0,2.9-0.3,4.2-0.9c1.3-0.6,2.5-1.4,3.4-2.4c1-1,1.7-2.2,2.3-3.6c0.5-1.4,0.8-2.8,0.8-4.4
		c0-1.5-0.3-2.9-0.8-4.3c-0.6-1.4-1.3-2.6-2.3-3.6c-1-1.1-2.1-1.9-3.4-2.5c-1.3-0.6-2.7-0.9-4.2-0.9c-1.5,0-3,0.3-4.3,0.9
		c-1.3,0.6-2.4,1.4-3.4,2.4c-1,1-1.7,2.2-2.3,3.6c-0.5,1.4-0.8,2.8-0.8,4.4c0,1.5,0.3,3,0.8,4.3c0.6,1.4,1.3,2.6,2.3,3.6
		c1,1.1,2.1,1.9,3.4,2.5C263.6,52,265,52.3,266.4,52.3 M266.4,54.7c-1.8,0-3.6-0.4-5.2-1.1c-1.6-0.7-3-1.7-4.3-2.9
		c-1.2-1.2-2.2-2.7-2.9-4.3c-0.7-1.7-1-3.4-1-5.3s0.3-3.6,1-5.3c0.7-1.7,1.7-3.1,2.9-4.3c1.2-1.2,2.6-2.2,4.3-2.9
		c1.6-0.7,3.3-1.1,5.2-1.1c1.8,0,3.6,0.4,5.2,1.1c1.6,0.7,3,1.7,4.3,2.9c1.2,1.2,2.2,2.7,2.9,4.3c0.7,1.7,1,3.4,1,5.3
		s-0.3,3.6-1,5.3c-0.7,1.7-1.7,3.1-2.9,4.3c-1.2,1.2-2.6,2.2-4.3,2.9C270,54.3,268.3,54.7,266.4,54.7"/>
	<path class="st4" d="M284.7,33.5v-1.8v-1.4c0-0.4,0-0.8,0-1.1c0-0.4,0-0.7-0.1-1.2h2.4c0,0.4,0.1,0.8,0.1,1.1c0,0.3,0,0.7,0.1,1.1
		c0,0.4,0,0.8,0,1.4v1.8c0.3-0.6,0.7-1.2,1.2-1.9c0.5-0.7,1.2-1.4,2-2c0.8-0.6,1.7-1.1,2.8-1.6c1.1-0.4,2.3-0.6,3.8-0.6
		c2.5,0,4.4,0.5,5.7,1.6c1.3,1.1,2.2,2.6,2.8,4.5v-0.1c0.3-0.5,0.7-1.1,1.3-1.8c0.6-0.7,1.3-1.4,2.2-2c0.9-0.6,1.9-1.2,3-1.6
		c1.1-0.4,2.4-0.6,3.8-0.6c1.7,0,3.2,0.3,4.4,0.8c1.2,0.5,2.1,1.3,2.8,2.3c0.7,1,1.2,2.2,1.5,3.6c0.3,1.4,0.5,3,0.5,4.7V54h-2.5
		V39.6c0-1.9-0.1-3.5-0.5-4.8c-0.3-1.3-0.8-2.3-1.4-3c-0.6-0.8-1.3-1.3-2.2-1.6c-0.8-0.3-1.8-0.5-3-0.5c-1.3,0-2.5,0.3-3.6,0.8
		c-1.1,0.5-2.1,1.2-3,2.1c-0.8,0.9-1.5,1.9-2,3c-0.5,1.1-0.7,2.3-0.7,3.5V54h-2.5V39.6c0-1.9-0.2-3.5-0.5-4.8
		c-0.3-1.3-0.7-2.3-1.3-3c-0.6-0.8-1.3-1.3-2.1-1.6c-0.8-0.3-1.8-0.5-3-0.5c-1.5,0-2.9,0.3-4.1,1c-1.2,0.7-2.1,1.5-2.9,2.6
		c-0.8,1.1-1.4,2.2-1.8,3.5c-0.4,1.3-0.6,2.5-0.6,3.8V54h-2.5V33.5z"/>
	<path class="st4" d="M333.2,49.5c0.3,0.2,0.6,0.4,1.1,0.8c0.4,0.3,1,0.6,1.7,0.9c0.7,0.3,1.5,0.6,2.3,0.8c0.9,0.2,1.9,0.3,3,0.3
		c1.4,0,2.8-0.2,4.1-0.7c1.3-0.5,2.4-1.2,3.3-2.1c0.9-0.9,1.7-2.1,2.2-3.5c0.5-1.4,0.8-3,0.8-4.8c0-1.5-0.2-2.9-0.5-4.3
		c-0.3-1.4-0.9-2.6-1.6-3.7c-0.7-1-1.7-1.9-2.8-2.5c-1.2-0.6-2.6-0.9-4.3-0.9c-1.1,0-2.2,0.2-3.1,0.5c-0.9,0.3-1.7,0.8-2.5,1.4
		c-0.7,0.6-1.3,1.3-1.9,2c-0.5,0.8-0.9,1.6-1.2,2.4c-0.3,0.7-0.4,1.5-0.5,2.4c-0.1,0.9-0.1,1.9-0.1,2.9V49.5z M330.8,33.5v-1.8v-1.4
		c0-0.4,0-0.8,0-1.1c0-0.4,0-0.7-0.1-1.2h2.4c0,0.4,0.1,0.8,0.1,1.1c0,0.3,0,0.6,0.1,1c0,0.3,0,0.7,0.1,1.2c0,0.4,0,0.9,0,1.5
		c0.2-0.3,0.5-0.8,0.9-1.4c0.4-0.6,1-1.2,1.8-1.8c0.8-0.6,1.7-1.1,2.8-1.6c1.1-0.5,2.5-0.7,4.1-0.7c2,0,3.7,0.4,5.2,1.1
		c1.5,0.7,2.7,1.7,3.6,2.9c1,1.2,1.7,2.7,2.1,4.4c0.5,1.7,0.7,3.5,0.7,5.4c0,2-0.3,3.9-1,5.5c-0.7,1.7-1.6,3.1-2.8,4.3
		c-1.2,1.2-2.6,2.1-4.2,2.7c-1.6,0.6-3.3,1-5.2,1c-1.8,0-3.4-0.3-4.7-0.8c-1.3-0.5-2.4-1-3.4-1.5v12.9h-2.5V33.5z"/>
	<path class="st4" d="M359,28.1h2.5v14.4c0,1.9,0.2,3.5,0.5,4.8c0.3,1.3,0.8,2.3,1.4,3c0.6,0.8,1.4,1.3,2.4,1.6
		c0.9,0.3,2,0.5,3.3,0.5c1.6,0,3-0.3,4.2-1c1.2-0.7,2.2-1.5,3-2.6c0.8-1.1,1.3-2.2,1.7-3.5c0.4-1.3,0.6-2.5,0.6-3.8V28.1h2.5v20.5
		v1.9v1.3c0,0.4,0,0.8,0,1.1s0,0.7,0.1,1.2h-2.4c0-0.4-0.1-0.8-0.1-1.1c0-0.3,0-0.7-0.1-1.1c0-0.4,0-0.8,0-1.3v-1.9
		c-0.3,0.6-0.7,1.2-1.2,1.9c-0.5,0.7-1.2,1.4-2,2c-0.8,0.6-1.7,1.1-2.8,1.6c-1.1,0.4-2.4,0.6-3.9,0.6c-1.8,0-3.4-0.3-4.6-0.8
		c-1.2-0.5-2.2-1.3-3-2.3c-0.8-1-1.3-2.2-1.6-3.6c-0.3-1.4-0.5-3-0.5-4.7V28.1z"/>
	<path class="st4" d="M389.7,30.4h-5.2v-2.4h5.2v-8.6h2.5v8.6h8.6v2.4h-8.6v15c0,1.5,0.1,2.8,0.3,3.7c0.2,0.9,0.6,1.6,1,2.1
		c0.4,0.5,0.9,0.8,1.5,0.9c0.6,0.1,1.2,0.2,1.9,0.2c0.9,0,1.7-0.2,2.4-0.5c0.7-0.3,1.4-0.9,2-1.7l1.6,1.5c-0.8,1-1.6,1.7-2.6,2.3
		c-1,0.5-2.2,0.8-3.7,0.8c-1,0-2-0.1-2.8-0.4c-0.9-0.2-1.6-0.7-2.2-1.4c-0.6-0.7-1.1-1.5-1.4-2.6c-0.3-1.1-0.5-2.5-0.5-4.3V30.4z"/>
	<path class="st4" d="M405.8,28.1h2.5V54h-2.5V28.1z M405.3,18.9h3.6v3.7h-3.6V18.9z"/>
	<path class="st4" d="M414.6,33.5v-1.8v-1.4c0-0.4,0-0.8,0-1.1c0-0.4,0-0.7-0.1-1.2h2.4c0,0.4,0.1,0.8,0.1,1.1c0,0.3,0,0.7,0.1,1.1
		c0,0.4,0,0.8,0,1.4v1.8c0.3-0.6,0.7-1.2,1.3-1.9c0.5-0.7,1.2-1.4,2-2c0.8-0.6,1.8-1.1,2.9-1.6c1.1-0.4,2.4-0.6,3.9-0.6
		c1.8,0,3.4,0.3,4.7,0.8c1.3,0.5,2.3,1.3,3.1,2.3c0.8,1,1.4,2.2,1.7,3.6c0.3,1.4,0.5,3,0.5,4.7V54h-2.5V39.6c0-1.9-0.2-3.5-0.5-4.8
		c-0.3-1.3-0.8-2.3-1.5-3c-0.7-0.8-1.5-1.3-2.4-1.6c-1-0.3-2.1-0.5-3.3-0.5c-1.7,0-3.1,0.3-4.3,1c-1.2,0.7-2.2,1.5-3,2.6
		c-0.8,1.1-1.4,2.2-1.8,3.5c-0.4,1.3-0.6,2.5-0.6,3.8V54h-2.5V33.5z"/>
	<path class="st4" d="M462.9,30.9c-0.6-0.2-1.2-0.4-1.9-0.6c-0.6-0.1-1.3-0.3-2.2-0.4c-0.8-0.1-1.8-0.2-2.9-0.2
		c-1.6,0-3.1,0.3-4.5,0.8c-1.4,0.5-2.6,1.2-3.7,2.2c-1.1,1-1.9,2.2-2.5,3.6c-0.6,1.4-0.9,3.1-0.9,4.9c0,1.5,0.2,2.9,0.5,4.2
		c0.3,1.3,0.9,2.5,1.6,3.5c0.7,1,1.7,1.8,2.8,2.4c1.2,0.6,2.6,0.9,4.3,0.9c1.7,0,3.1-0.3,4.2-0.9c1.2-0.6,2.1-1.4,2.9-2.3
		c0.8-0.9,1.3-1.8,1.7-2.8c0.4-1,0.5-1.8,0.5-2.4V30.9z M445.2,61c0.6,0.5,1.5,1,2.8,1.6c1.3,0.6,3,0.9,5.1,0.9
		c1.9,0,3.4-0.3,4.7-0.8c1.2-0.5,2.2-1.2,3-2.1c0.8-0.9,1.3-1.9,1.6-3.1c0.3-1.2,0.5-2.5,0.5-3.9v-3.9c-0.6,1-1.4,1.8-2.3,2.5
		c-0.8,0.6-1.8,1.2-3,1.7c-1.2,0.5-2.6,0.8-4.3,0.8c-2,0-3.7-0.3-5.2-1c-1.5-0.7-2.7-1.6-3.6-2.8c-1-1.2-1.7-2.6-2.1-4.3
		c-0.5-1.6-0.7-3.4-0.7-5.3c0-2.1,0.4-4,1.1-5.7c0.7-1.7,1.7-3.2,3-4.4c1.3-1.2,2.8-2.1,4.6-2.8c1.7-0.7,3.6-1,5.7-1
		c1.9,0,3.7,0.2,5.3,0.6c1.7,0.4,3,0.8,4,1.2v24.2c0,1.9-0.2,3.7-0.7,5.2c-0.5,1.6-1.2,2.9-2.2,3.9c-1,1.1-2.3,1.9-3.8,2.5
		c-1.6,0.6-3.4,0.9-5.7,0.9c-1.2,0-2.4-0.1-3.4-0.3c-1-0.2-1.9-0.5-2.6-0.8c-0.8-0.3-1.4-0.6-1.9-1c-0.5-0.3-1-0.6-1.3-0.9L445.2,61
		z"/>
</g>
</svg>
